<?xml version="1.0" standalone="no"?>
<!DOCTYPE svg PUBLIC "-//W3C//DTD SVG 20010904//EN"
 "http://www.w3.org/TR/2001/REC-SVG-20010904/DTD/svg10.dtd">
<svg version="1.0" xmlns="http://www.w3.org/2000/svg"
 width="3185.000000pt" height="2242.000000pt" viewBox="0 0 3185.000000 2242.000000"
 preserveAspectRatio="xMidYMid meet">

<g transform="translate(0.000000,2242.000000) scale(0.100000,-0.100000)"
fill="#000000" stroke="none">
<path d="M13260 21864 c0 -8 5 -12 10 -9 6 4 8 11 5 16 -9 14 -15 11 -15 -7z"/>
<path d="M14121 21461 c-10 -6 -10 -10 -1 -16 13 -8 24 -1 19 14 -3 6 -10 7
-18 2z"/>
<path d="M7505 21360 c-10 -11 -14 -20 -8 -20 5 0 18 9 28 20 10 11 14 20 8
20 -5 0 -18 -9 -28 -20z"/>
<path d="M9430 21272 c0 -22 13 -42 27 -42 21 0 12 44 -9 48 -10 2 -18 -1 -18
-6z"/>
<path d="M12401 20764 c0 -11 3 -14 6 -6 3 7 2 16 -1 19 -3 4 -6 -2 -5 -13z"/>
<path d="M10230 20723 c0 -18 56 -153 63 -153 5 0 6 6 3 13 -2 6 -15 42 -26
80 -12 37 -26 67 -31 67 -5 0 -9 -3 -9 -7z"/>
<path d="M15597 20633 c-10 -9 -8 -53 2 -53 5 0 14 7 21 15 20 24 -2 59 -23
38z"/>
<path d="M11065 20599 c-4 -6 -5 -13 -2 -16 7 -7 27 6 27 18 0 12 -17 12 -25
-2z"/>
<path d="M11403 20533 c4 -16 20 -84 37 -153 16 -69 35 -158 42 -197 6 -40 16
-73 21 -73 4 0 6 8 3 18 -3 9 -8 35 -12 57 -3 22 -22 107 -40 189 -19 83 -34
158 -34 168 0 10 -5 18 -11 18 -7 0 -9 -10 -6 -27z"/>
<path d="M10494 20337 c-4 -12 5 -35 30 -71 20 -29 36 -63 36 -76 0 -13 20
-56 45 -96 30 -48 50 -93 57 -131 6 -32 15 -69 21 -83 11 -24 12 -24 15 12 2
26 -8 62 -32 119 -20 46 -36 88 -36 94 0 6 -18 47 -40 90 -22 43 -40 84 -40
91 0 7 -11 26 -24 41 -22 25 -25 26 -32 10z"/>
<path d="M12192 20110 c-1 -19 3 -53 7 -75 8 -35 9 -36 9 -10 0 17 -3 50 -7
75 -8 42 -9 43 -9 10z"/>
<path d="M14590 19990 c0 -5 5 -10 11 -10 5 0 7 5 4 10 -3 6 -8 10 -11 10 -2
0 -4 -4 -4 -10z"/>
<path d="M8070 19881 c0 -23 63 -137 91 -166 34 -35 22 6 -26 85 -24 41 -45
81 -45 88 0 6 -4 12 -10 12 -5 0 -10 -9 -10 -19z"/>
<path d="M9750 19773 c0 -5 5 -15 10 -23 8 -12 10 -11 10 8 0 12 -4 22 -10 22
-5 0 -10 -3 -10 -7z"/>
<path d="M7639 19732 c-9 -15 -29 -43 -44 -63 -15 -22 -25 -46 -23 -59 l3 -23
33 27 c17 15 32 33 32 40 0 7 11 27 25 46 19 25 22 37 14 47 -16 19 -22 16
-40 -15z"/>
<path d="M6398 19503 c-22 -27 -30 -43 -20 -43 4 0 18 14 30 30 24 32 15 42
-10 13z"/>
<path d="M7857 19123 c-17 -16 -3 -44 43 -87 28 -26 73 -82 102 -124 90 -135
204 -240 231 -213 26 26 -66 152 -188 256 -39 34 -79 79 -92 103 -12 24 -27
50 -33 58 -13 14 -51 19 -63 7z"/>
<path d="M5890 18687 c0 -7 14 -20 30 -29 l30 -17 -16 24 c-17 27 -44 40 -44
22z"/>
<path d="M11910 18591 c0 -5 5 -13 10 -16 6 -3 10 -2 10 4 0 5 -4 13 -10 16
-5 3 -10 2 -10 -4z"/>
<path d="M9715 18430 c-9 -14 73 -145 134 -215 9 -11 23 -33 30 -50 22 -53
113 -185 127 -185 8 0 14 6 14 13 0 16 -65 123 -100 166 -14 17 -41 53 -60 81
-19 28 -49 70 -67 93 -18 23 -39 57 -47 75 -16 34 -21 38 -31 22z"/>
<path d="M26610 17705 c7 -8 17 -15 22 -15 6 0 5 7 -2 15 -7 8 -17 15 -22 15
-6 0 -5 -7 2 -15z"/>
<path d="M25110 17620 c0 -24 15 -27 24 -4 9 22 8 24 -9 24 -8 0 -15 -9 -15
-20z"/>
<path d="M11017 17553 c-3 -4 1 -19 9 -33 12 -22 13 -23 13 -5 1 24 -14 50
-22 38z"/>
<path d="M16142 17508 c-19 -19 -14 -30 10 -26 13 2 24 11 26 21 4 20 -18 23
-36 5z"/>
<path d="M22831 17244 c0 -11 3 -14 6 -6 3 7 2 16 -1 19 -3 4 -6 -2 -5 -13z"/>
<path d="M24506 17209 c-24 -67 -37 -112 -33 -115 2 -3 14 23 26 57 13 33 20
63 17 66 -3 3 -8 0 -10 -8z"/>
<path d="M20342 17124 c1 -9 9 -19 16 -22 9 -3 13 2 10 14 -1 9 -9 19 -16 22
-9 3 -13 -2 -10 -14z"/>
<path d="M23855 17110 c3 -5 11 -10 16 -10 6 0 7 5 4 10 -3 6 -11 10 -16 10
-6 0 -7 -4 -4 -10z"/>
<path d="M23572 16942 c-18 -77 -32 -149 -31 -159 0 -10 16 50 35 132 18 83
32 154 31 159 -2 5 -17 -54 -35 -132z"/>
<path d="M17312 16930 c-18 -29 -15 -38 4 -12 9 13 14 25 12 27 -2 2 -9 -5
-16 -15z"/>
<path d="M24293 16908 c-19 -24 -103 -219 -103 -238 0 -2 16 19 35 47 19 29
35 61 35 71 0 10 13 39 30 63 30 44 37 69 21 69 -5 0 -13 -6 -18 -12z"/>
<path d="M9117 16754 c-14 -15 -6 -43 14 -49 25 -8 42 6 37 31 -3 19 -38 31
-51 18z"/>
<path d="M23531 16744 c0 -11 3 -14 6 -6 3 7 2 16 -1 19 -3 4 -6 -2 -5 -13z"/>
<path d="M22992 16710 c0 -19 2 -27 5 -17 2 9 2 25 0 35 -3 9 -5 1 -5 -18z"/>
<path d="M24166 16620 c-18 -46 -20 -70 -7 -70 11 0 16 16 26 73 8 48 1 47
-19 -3z"/>
<path d="M6421 16572 c5 -14 118 -102 132 -102 6 0 8 2 6 4 -19 17 -117 94
-128 100 -9 6 -12 5 -10 -2z"/>
<path d="M26148 16507 c-36 -61 -48 -94 -29 -83 10 6 63 99 74 129 14 37 -10
13 -45 -46z"/>
<path d="M11701 16479 c0 -13 4 -33 9 -44 7 -14 8 -8 3 20 -7 46 -13 59 -12
24z"/>
<path d="M24876 16463 c-6 -14 -5 -15 5 -6 7 7 10 15 7 18 -3 3 -9 -2 -12 -12z"/>
<path d="M26490 16447 c0 -7 5 -18 11 -24 5 -5 18 -25 27 -44 17 -33 52 -52
52 -28 0 7 -15 34 -32 61 -32 46 -58 62 -58 35z"/>
<path d="M8123 16347 c-94 -60 -121 -83 -48 -42 28 15 71 40 97 54 26 14 48
29 48 34 0 13 -14 6 -97 -46z"/>
<path d="M27470 16272 c0 -5 10 -17 22 -28 l21 -19 -18 28 c-18 28 -25 33 -25
19z"/>
<path d="M7030 16030 c0 -5 4 -10 9 -10 6 0 13 5 16 10 3 6 -1 10 -9 10 -9 0
-16 -4 -16 -10z"/>
<path d="M7810 16010 c0 -5 7 -10 16 -10 8 0 12 5 9 10 -3 6 -10 10 -16 10 -5
0 -9 -4 -9 -10z"/>
<path d="M9730 16000 c0 -5 5 -10 11 -10 5 0 7 5 4 10 -3 6 -8 10 -11 10 -2 0
-4 -4 -4 -10z"/>
<path d="M26308 15963 c-9 -10 -19 -28 -22 -39 -4 -12 -43 -55 -87 -95 -75
-69 -139 -151 -139 -177 0 -23 37 -12 76 22 22 18 63 68 93 111 29 42 73 97
98 121 39 37 44 46 33 59 -16 20 -33 19 -52 -2z"/>
<path d="M13022 15828 c3 -7 13 -15 22 -16 12 -3 17 1 14 10 -3 7 -13 15 -22
16 -12 3 -17 -1 -14 -10z"/>
<path d="M11110 15780 c0 -5 5 -10 11 -10 5 0 7 5 4 10 -3 6 -8 10 -11 10 -2
0 -4 -4 -4 -10z"/>
<path d="M9911 15771 c-8 -5 -10 -14 -7 -20 9 -13 33 -15 40 -2 9 14 -18 31
-33 22z"/>
<path d="M6170 15740 c0 -12 73 -50 96 -50 14 0 15 2 3 17 -14 16 -69 43 -89
43 -5 0 -10 -4 -10 -10z"/>
<path d="M13160 15720 c0 -5 5 -10 10 -10 6 0 10 5 10 10 0 6 -4 10 -10 10 -5
0 -10 -4 -10 -10z"/>
<path d="M6586 15690 c-16 -5 -15 -8 12 -19 17 -7 36 -10 42 -6 25 15 -21 37
-54 25z"/>
<path d="M8511 15631 c-33 -21 87 -120 147 -121 12 0 31 9 42 20 19 19 19 22
5 51 -9 16 -28 35 -43 40 -37 15 -134 21 -151 10z"/>
<path d="M27850 15620 c-10 -19 -10 -20 9 -8 22 13 28 28 11 28 -5 0 -14 -9
-20 -20z"/>
<path d="M12494 15525 c-8 -21 14 -45 42 -45 28 0 37 13 29 40 -8 24 -62 28
-71 5z"/>
<path d="M15705 15439 c-4 -11 -30 -54 -58 -96 -29 -42 -68 -106 -88 -142 -84
-154 -148 -281 -141 -281 4 0 20 24 35 53 14 28 58 102 97 162 39 61 85 137
102 170 17 33 44 75 59 93 16 18 29 39 29 47 0 23 -28 18 -35 -6z"/>
<path d="M24835 15334 c-38 -57 -87 -129 -108 -159 -24 -34 -37 -63 -35 -77 3
-19 11 -11 49 47 26 39 52 82 60 97 8 14 38 59 67 99 48 67 63 100 45 98 -5 0
-39 -47 -78 -105z"/>
<path d="M8633 15422 c-40 -4 -42 -20 -5 -54 33 -31 75 -42 102 -28 22 12 27
52 8 67 -17 13 -65 20 -105 15z"/>
<path d="M6933 15394 c-10 -27 11 -49 51 -52 43 -4 58 18 31 48 -22 24 -73 27
-82 4z"/>
<path d="M5746 15385 c-11 -8 -15 -15 -9 -15 6 0 16 7 23 15 16 19 11 19 -14
0z"/>
<path d="M7040 15372 c0 -11 115 -82 132 -82 6 0 -15 17 -48 38 -84 54 -84 54
-84 44z"/>
<path d="M12296 15360 c-25 -25 -12 -40 35 -40 32 0 39 3 39 20 0 18 -27 41
-47 39 -4 0 -16 -9 -27 -19z"/>
<path d="M14340 15290 c0 -5 5 -10 10 -10 6 0 10 5 10 10 0 6 -4 10 -10 10 -5
0 -10 -4 -10 -10z"/>
<path d="M12055 15251 c10 -34 64 -147 64 -136 0 25 -47 149 -59 153 -8 3 -10
-2 -5 -17z"/>
<path d="M14970 15261 c0 -6 5 -13 10 -16 6 -3 10 1 10 9 0 9 -4 16 -10 16 -5
0 -10 -4 -10 -9z"/>
<path d="M8480 15186 c0 -10 9 -16 21 -16 24 0 21 23 -4 28 -10 2 -17 -3 -17
-12z"/>
<path d="M13005 15181 c-6 -11 9 -23 19 -14 9 9 7 23 -3 23 -6 0 -12 -4 -16
-9z"/>
<path d="M14463 15170 c-65 -10 -139 -45 -160 -76 -32 -50 7 -208 60 -246 27
-19 45 -23 109 -23 69 0 81 3 120 30 46 32 82 93 93 157 8 40 4 45 -92 124
-47 39 -64 43 -130 34z"/>
<path d="M10043 15114 c-6 -17 12 -34 39 -34 23 0 32 18 18 35 -16 20 -49 19
-57 -1z"/>
<path d="M15190 15100 c-41 -41 -17 -110 38 -110 66 0 96 67 50 110 -28 25
-62 26 -88 0z"/>
<path d="M12080 14919 c0 -5 5 -7 10 -4 6 3 10 8 10 11 0 2 -4 4 -10 4 -5 0
-10 -5 -10 -11z"/>
<path d="M14200 14830 c0 -5 7 -10 15 -10 8 0 15 5 15 10 0 6 -7 10 -15 10 -8
0 -15 -4 -15 -10z"/>
<path d="M11292 14783 c2 -10 11 -19 21 -21 16 -3 17 -1 7 17 -13 25 -33 28
-28 4z"/>
<path d="M6640 14750 c0 -5 7 -10 15 -10 8 0 15 5 15 10 0 6 -7 10 -15 10 -8
0 -15 -4 -15 -10z"/>
<path d="M23897 14741 c-4 -17 -3 -21 5 -13 5 5 8 16 6 23 -3 8 -7 3 -11 -10z"/>
<path d="M19912 14718 c3 -7 13 -15 22 -16 12 -3 17 1 14 10 -3 7 -13 15 -22
16 -12 3 -17 -1 -14 -10z"/>
<path d="M7401 14691 c-21 -13 3 -41 35 -41 31 0 41 20 19 37 -22 15 -34 16
-54 4z"/>
<path d="M12034 14686 c-8 -21 3 -36 27 -36 15 0 20 6 17 22 -4 27 -35 37 -44
14z"/>
<path d="M7520 14630 c0 -5 7 -10 15 -10 8 0 15 5 15 10 0 6 -7 10 -15 10 -8
0 -15 -4 -15 -10z"/>
<path d="M13084 14596 c-8 -22 3 -33 18 -18 9 9 9 15 0 24 -9 9 -13 7 -18 -6z"/>
<path d="M11042 14568 c5 -15 48 -18 48 -3 0 6 -11 11 -26 13 -18 3 -25 0 -22
-10z"/>
<path d="M9885 14439 c-12 -19 5 -23 22 -6 16 16 16 17 1 17 -9 0 -20 -5 -23
-11z"/>
<path d="M11090 14430 c0 -5 7 -10 15 -10 8 0 15 5 15 10 0 6 -7 10 -15 10 -8
0 -15 -4 -15 -10z"/>
<path d="M11760 14375 c0 -8 9 -15 20 -15 11 0 20 7 20 15 0 8 -9 15 -20 15
-11 0 -20 -7 -20 -15z"/>
<path d="M12555 14308 c4 -46 13 -99 20 -118 17 -44 28 -140 29 -248 l1 -83
-24 6 c-205 51 -909 164 -1226 197 -115 11 -121 13 -153 45 -42 41 -66 44 -27
3 16 -16 25 -30 21 -30 -4 0 -91 9 -194 21 -109 12 -215 19 -254 16 -86 -7
-204 -54 -408 -160 -85 -44 -213 -111 -285 -147 -71 -36 -162 -85 -202 -108
-39 -23 -81 -42 -92 -42 -11 0 -25 -8 -30 -18 -12 -22 -214 -120 -296 -143
-60 -17 -60 -17 -25 -23 19 -3 105 -13 190 -22 118 -13 158 -20 166 -33 7 -9
104 -142 217 -295 l204 -279 -33 -46 c-19 -25 -39 -51 -44 -58 -6 -7 -10 -19
-10 -27 0 -8 -20 -35 -45 -60 -25 -26 -45 -51 -45 -57 0 -5 -22 -31 -50 -58
-56 -55 -62 -82 -31 -143 10 -20 21 -62 25 -93 5 -48 3 -62 -15 -91 -17 -28
-19 -37 -9 -49 15 -18 74 -19 114 -2 47 20 169 -1 314 -56 62 -23 70 -36 64
-99 l-4 -48 -43 0 c-24 0 -47 -5 -50 -11 -11 -17 -1 -19 39 -8 65 18 127 -5
190 -71 44 -46 54 -63 60 -103 19 -144 20 -131 -14 -171 -29 -32 -37 -36 -81
-36 -27 0 -49 4 -49 10 0 5 26 22 57 37 31 15 56 33 55 38 -3 19 -94 17 -151
-3 -101 -35 -159 -52 -171 -52 -7 0 -25 14 -40 30 -29 32 -68 38 -140 24 -35
-8 -60 -49 -60 -101 0 -22 -8 -32 -37 -48 -72 -38 -43 -81 33 -49 21 9 66 18
99 19 l60 3 -65 -32 c-48 -23 -66 -37 -68 -53 -4 -29 15 -30 66 -4 20 10 55
24 77 31 78 25 102 70 38 70 -28 0 -34 3 -23 10 8 5 26 10 40 10 14 0 39 9 55
20 35 23 80 26 88 6 4 -10 32 -16 92 -21 103 -9 108 -15 110 -125 2 -91 20
-130 78 -167 23 -14 76 -52 117 -83 41 -31 96 -69 123 -84 26 -16 52 -37 58
-49 11 -20 7 -103 -6 -157 -5 -18 -2 -15 12 10 21 41 49 47 45 10 -1 -14 -4
-47 -5 -75 -2 -27 -10 -75 -17 -106 -7 -32 -10 -73 -6 -93 7 -35 8 -36 50 -36
23 0 45 -3 48 -6 12 -12 -5 -44 -24 -44 -11 0 -37 -18 -57 -40 -28 -31 -49
-43 -95 -55 -32 -8 -61 -16 -63 -19 -2 -2 19 -6 46 -10 l49 -6 -25 -45 c-15
-27 -34 -47 -48 -51 -23 -6 -95 12 -95 23 0 2 13 23 29 46 16 23 32 60 35 82
l7 40 -16 -29 c-8 -15 -15 -34 -15 -42 0 -7 -13 -20 -29 -28 -16 -9 -34 -29
-39 -45 -10 -29 -54 -52 -70 -37 -7 8 43 104 95 181 18 27 33 55 33 62 0 6 3
13 8 15 11 5 72 85 72 95 0 4 11 25 25 45 27 40 37 120 17 140 -18 18 -58 -6
-88 -54 -28 -44 -114 -233 -114 -250 0 -16 -52 -78 -61 -73 -4 3 -15 -8 -24
-25 -8 -16 -22 -30 -29 -30 -17 0 -62 -52 -72 -82 -3 -13 -31 -47 -61 -75 -45
-44 -60 -53 -91 -53 -20 -1 -48 -7 -62 -15 -14 -8 -34 -14 -45 -14 -11 0 8 13
43 29 56 26 83 52 70 66 -3 3 -25 -2 -49 -11 -67 -25 -154 -53 -253 -81 -48
-14 -99 -32 -113 -41 -14 -10 -46 -18 -71 -19 -97 -3 -126 -106 -42 -149 40
-21 69 -19 146 10 80 30 109 31 131 5 10 -11 24 -20 31 -20 8 0 32 -10 53 -22
36 -20 44 -21 86 -10 25 7 57 21 71 32 44 35 69 19 37 -24 -20 -26 -19 -46 3
-62 24 -19 57 -17 100 5 21 11 72 24 115 30 53 7 96 21 142 46 51 27 79 35
118 35 34 0 70 9 105 25 30 14 63 25 73 25 11 0 46 11 79 25 72 30 141 33 179
6 43 -31 65 -31 69 1 3 28 43 68 68 68 38 0 104 -127 104 -200 0 -57 -47 -84
-70 -40 -30 57 -60 -7 -60 -128 0 -72 -1 -75 -39 -118 -21 -24 -55 -77 -76
-117 -24 -46 -62 -96 -104 -139 -36 -36 -79 -83 -95 -103 -16 -20 -80 -70
-142 -111 -63 -41 -114 -78 -114 -83 0 -5 -19 -31 -43 -57 -23 -27 -60 -76
-82 -109 -39 -58 -116 -139 -335 -351 -93 -90 -111 -114 -159 -205 -77 -149
-156 -265 -223 -331 -33 -32 -63 -58 -68 -58 -5 0 -29 -31 -54 -69 -43 -64
-83 -102 -114 -107 -32 -5 -42 -15 -42 -40 0 -14 -12 -41 -27 -60 -16 -18 -48
-59 -73 -91 -53 -68 -152 -166 -272 -270 -49 -41 -88 -79 -88 -83 0 -5 -33
-41 -73 -82 -41 -40 -102 -116 -137 -168 -35 -52 -82 -119 -104 -147 -49 -63
-181 -200 -221 -228 -48 -35 -89 -80 -124 -139 l-34 -57 20 -27 c11 -15 27
-28 35 -30 35 -7 161 115 194 188 6 14 24 36 39 50 15 14 38 46 51 72 15 30
91 114 217 240 182 182 307 322 307 346 0 5 39 51 86 101 48 50 96 106 108
125 12 20 57 67 100 106 43 38 99 96 123 128 24 31 88 100 141 153 53 53 112
115 130 138 18 23 66 64 107 91 40 27 95 75 122 107 26 31 84 93 128 138 127
128 248 264 274 306 12 21 27 39 32 39 4 0 20 21 35 48 15 26 36 58 46 71 10
13 25 46 32 72 14 46 117 189 137 189 5 0 36 29 70 64 36 38 84 76 115 91 53
26 68 40 125 122 16 24 48 55 71 70 22 16 51 35 63 43 127 88 217 135 241 126
13 -5 15 -15 11 -41 -7 -41 -3 -42 41 -15 18 11 39 20 47 20 23 0 28 20 11 39
-21 23 -7 66 23 76 12 3 24 18 27 32 4 15 25 36 55 55 51 31 61 51 33 66 -14
8 -5 20 49 75 36 37 82 92 104 124 21 31 43 58 49 60 6 2 188 -238 404 -533
l394 -537 -12 -106 c-6 -58 -13 -113 -14 -121 -2 -8 2 -17 7 -20 6 -3 15 38
22 104 7 59 13 110 15 111 2 2 300 -402 662 -896 363 -495 671 -909 685 -921
23 -17 36 -19 106 -15 104 5 208 41 404 137 241 119 603 343 673 417 l26 28
-378 515 c-209 283 -379 518 -380 521 0 4 9 9 20 12 22 6 27 32 8 43 -6 4 -19
-2 -28 -14 -16 -20 -29 -4 -461 586 -288 393 -446 616 -449 636 -3 21 -14 35
-31 43 -33 16 -465 601 -452 614 4 4 71 30 148 57 738 262 1103 454 1361 718
l92 93 303 -198 303 -198 843 -1729 c463 -951 851 -1736 862 -1745 30 -25 100
-31 191 -19 174 24 490 127 719 236 103 49 113 56 107 76 -3 13 -226 475 -495
1027 -270 553 -489 1007 -486 1009 2 2 879 -568 1948 -1267 l1944 -1271 -13
-48 c-6 -26 -21 -67 -33 -92 -11 -25 -21 -55 -21 -68 0 -12 -11 -49 -25 -82
-22 -52 -25 -90 -6 -90 20 1 34 24 47 79 7 34 23 81 34 103 11 23 20 49 20 59
0 9 7 30 15 45 8 16 15 37 15 47 0 9 3 17 7 17 4 0 62 -37 130 -81 l122 -81
64 4 c50 3 84 14 165 52 l101 49 122 -117 c276 -264 505 -416 739 -491 104
-33 267 -45 351 -25 139 32 279 143 393 312 l58 86 28 -31 c25 -29 160 -284
160 -303 0 -5 9 -20 20 -34 17 -23 20 -24 35 -9 15 15 15 19 1 50 -9 19 -36
68 -62 109 -81 131 -99 164 -123 223 l-23 58 60 132 c73 160 209 490 267 645
39 107 42 111 58 94 9 -10 17 -27 17 -38 0 -38 128 -221 206 -296 22 -20 57
-59 79 -87 22 -27 45 -50 50 -51 6 0 36 -31 68 -70 31 -38 80 -85 109 -105 49
-32 242 -228 308 -310 15 -19 52 -56 81 -82 29 -27 65 -66 81 -88 16 -22 55
-67 86 -100 32 -33 69 -78 84 -100 36 -54 152 -184 211 -233 50 -44 177 -184
177 -197 0 -4 15 -26 33 -49 18 -23 45 -60 60 -82 33 -50 99 -104 124 -104 22
0 43 18 43 38 0 16 -78 132 -89 132 -16 0 -134 114 -186 180 -28 36 -74 99
-102 140 -28 41 -97 121 -154 177 -57 56 -140 137 -184 180 -44 43 -91 93
-105 112 -14 18 -35 46 -47 61 -13 15 -23 37 -23 49 0 14 -8 23 -27 27 -36 9
-59 29 -92 80 -14 22 -50 62 -80 89 -60 52 -125 145 -190 272 -33 62 -61 100
-119 155 -163 155 -229 225 -262 273 -19 28 -56 76 -83 107 l-49 57 27 98 c15
54 29 99 30 101 7 8 85 -53 114 -88 31 -39 61 -52 61 -28 0 6 -37 47 -82 90
l-81 79 17 87 c9 48 22 129 28 180 10 77 15 92 28 86 8 -3 43 -10 78 -15 35
-5 76 -16 92 -24 36 -19 51 -19 76 -1 18 14 18 15 1 45 -17 29 -17 31 -1 31
10 0 25 -6 33 -14 39 -33 73 -35 131 -5 30 15 61 31 69 35 8 4 42 -2 75 -14
34 -12 71 -22 84 -22 34 0 82 51 75 79 -7 29 -41 51 -76 51 -15 0 -40 6 -55
14 -15 8 -72 28 -127 44 -55 17 -121 38 -148 46 -45 15 -47 14 -37 -4 5 -10
30 -26 55 -36 64 -24 50 -28 -26 -8 -71 19 -119 56 -150 117 -11 21 -31 43
-44 49 -14 6 -27 19 -30 30 -4 10 -12 18 -18 18 -7 0 -19 10 -27 23 -23 35
-70 156 -70 180 0 19 -32 171 -55 257 -5 23 3 32 91 94 101 73 130 112 118
160 -3 13 0 42 6 65 l11 41 65 0 c48 0 66 4 70 15 8 19 38 19 72 1 15 -8 41
-18 57 -22 l30 -8 -32 -4 c-59 -6 -41 -27 60 -67 97 -38 121 -8 27 34 l-45 19
50 -3 c28 -2 67 -7 88 -11 30 -5 37 -3 37 10 0 8 -13 22 -29 30 -22 12 -29 24
-34 56 -3 23 -8 44 -11 48 -3 3 -32 7 -63 10 -52 4 -58 3 -78 -22 -21 -26 -23
-27 -61 -13 -98 35 -142 47 -177 47 -48 0 -45 -18 6 -43 46 -22 47 -37 3 -37
-50 0 -90 43 -82 90 3 19 6 50 6 68 0 26 11 45 49 85 l50 52 65 0 c36 0 66 3
66 8 0 4 -18 7 -40 7 l-40 0 0 45 c0 53 12 63 110 94 70 22 147 27 221 16 55
-9 68 4 44 41 -19 29 -13 106 11 152 22 42 17 61 -26 103 -22 22 -40 43 -40
47 0 4 -15 23 -33 42 -18 19 -40 51 -51 70 -43 83 -96 119 -229 160 l-67 20
-93 -30 c-102 -33 -152 -72 -181 -142 -9 -20 -24 -39 -33 -42 -86 -24 -113
-14 -94 32 23 56 2 54 -67 -4 -86 -71 -151 -134 -164 -158 -9 -16 -28 17 -124
214 -63 128 -114 235 -114 236 0 2 8 4 18 5 11 1 9 3 -7 8 -19 5 -47 47 -119
171 -386 675 -875 1277 -1477 1819 -621 560 -1095 835 -1475 857 -238 14 -411
-80 -572 -311 -213 -306 -384 -679 -490 -1067 l-13 -47 -87 99 c-273 309 -678
581 -1128 757 -389 152 -811 243 -1325 285 -194 15 -751 15 -970 -1 -483 -35
-536 -51 -932 -287 -206 -122 -334 -187 -436 -220 l-72 -23 96 6 95 6 112
-228 c62 -125 112 -231 112 -236 0 -5 -35 20 -77 56 -98 83 -325 235 -468 314
-60 33 -116 64 -124 69 -15 8 -12 20 47 235 2 9 -1 17 -7 17 -6 0 -11 -10 -11
-21 0 -18 -48 -209 -55 -217 -1 -1 -58 24 -126 57 -68 32 -182 82 -254 111
-71 29 -139 59 -150 66 -11 8 -28 14 -38 14 -11 0 -114 31 -231 69 -116 37
-284 88 -373 111 -89 24 -160 47 -157 52 3 4 1 8 -5 8 -5 0 -12 14 -16 30 -9
43 -29 38 -21 -5 5 -27 4 -35 -7 -35 -18 0 -25 25 -33 115 -4 39 -14 81 -22
95 -9 14 -20 61 -24 105 -14 148 -23 202 -37 219 -27 33 -33 17 -26 -66z
m3350 -967 c0 -1 28 -4 62 -6 84 -6 389 -68 548 -111 852 -235 1511 -720 1805
-1329 96 -200 130 -327 130 -498 0 -60 -5 -128 -11 -153 -11 -42 -13 -44 -48
-44 -62 0 -280 39 -426 77 -392 100 -865 303 -1397 599 l-157 88 -337 690
c-185 379 -338 695 -340 701 -3 7 22 7 83 -1 49 -7 88 -12 88 -13z m-4024
-340 c319 -108 507 -185 750 -306 708 -355 1066 -750 1095 -1210 10 -153 -32
-293 -130 -429 -80 -112 -82 -113 -232 -120 -127 -6 -131 -6 -151 16 -11 13
-361 489 -778 1058 -417 569 -762 1041 -768 1048 -6 7 -6 12 0 12 5 0 102 -31
214 -69z m8511 -555 c556 -306 1203 -885 1713 -1531 490 -621 895 -1366 1135
-2085 50 -151 150 -521 150 -557 0 -8 -17 -6 -57 8 -148 51 -366 179 -540 319
-113 92 -448 431 -597 605 -376 439 -954 1212 -942 1260 3 11 17 58 31 105 15
47 27 112 28 145 l2 61 -109 159 c-287 422 -518 786 -688 1085 -105 184 -258
471 -258 484 0 12 17 5 132 -58z m-5146 -507 c19 -39 34 -72 32 -74 -2 -2 -29
-15 -61 -29 -50 -22 -57 -23 -53 -8 17 55 36 139 36 159 0 13 2 23 5 23 3 0
21 -32 41 -71z m4233 -617 c46 -117 166 -374 233 -498 l55 -102 -14 -68 c-8
-38 -12 -86 -10 -106 7 -52 365 -704 606 -1102 40 -65 70 -120 69 -122 -2 -2
-514 330 -1137 738 l-1133 741 143 44 c484 150 878 337 1089 517 29 25 56 46
59 46 3 0 21 -39 40 -88z m4541 -372 c0 -10 -9 -24 -19 -30 -31 -16 -104 -12
-131 8 l-25 17 70 11 c102 17 105 17 105 -6z m135 -1770 c29 -58 30 -60 11
-60 -26 0 -46 30 -46 71 0 21 2 39 5 39 2 0 16 -22 30 -50z"/>
<path d="M17500 12130 c0 -5 5 -10 10 -10 6 0 10 5 10 10 0 6 -4 10 -10 10 -5
0 -10 -4 -10 -10z"/>
<path d="M18875 10550 c3 -5 8 -10 11 -10 2 0 4 5 4 10 0 6 -5 10 -11 10 -5 0
-7 -4 -4 -10z"/>
<path d="M7300 14322 c0 -11 6 -14 80 -32 25 -6 82 -22 128 -36 l82 -25 0 -34
c0 -29 4 -36 26 -41 18 -5 31 0 48 15 l24 22 173 -55 c95 -31 175 -54 177 -51
9 9 -119 62 -228 95 -58 17 -127 40 -155 50 -27 10 -75 24 -105 30 -30 7 -80
23 -112 36 -67 28 -138 41 -138 26z"/>
<path d="M16291 14316 c-15 -18 1 -30 29 -21 24 8 26 21 4 29 -21 8 -20 8 -33
-8z"/>
<path d="M7068 14313 c-38 -10 -8 -43 38 -43 40 0 54 18 29 37 -19 13 -35 15
-67 6z"/>
<path d="M11588 14279 c-25 -14 -22 -34 9 -59 51 -40 109 -9 85 44 -9 20 -19
26 -44 26 -18 0 -41 -5 -50 -11z"/>
<path d="M9217 14223 c-4 -3 -7 -16 -7 -29 0 -20 9 -24 73 -39 88 -19 201 -57
253 -83 22 -11 77 -32 124 -47 47 -15 92 -34 100 -41 27 -23 88 -44 130 -44
77 0 43 29 -130 114 -62 31 -124 56 -137 56 -13 0 -41 9 -61 19 -21 11 -65 24
-98 30 -32 6 -97 25 -144 41 -93 33 -94 33 -103 23z"/>
<path d="M8255 14210 c9 -14 175 -93 182 -86 4 3 -32 22 -181 94 -5 3 -5 -1
-1 -8z"/>
<path d="M25347 14134 c-16 -16 -6 -35 16 -32 12 2 22 10 22 18 0 16 -26 25
-38 14z"/>
<path d="M14297 14046 c-8 -20 20 -43 35 -28 14 14 3 42 -16 42 -7 0 -16 -6
-19 -14z"/>
<path d="M27420 13964 c-57 -45 -72 -60 -45 -46 22 11 103 81 95 81 -3 1 -25
-15 -50 -35z"/>
<path d="M23372 13910 c0 -14 2 -19 5 -12 2 6 2 18 0 25 -3 6 -5 1 -5 -13z"/>
<path d="M3907 13904 c-14 -14 -7 -35 11 -32 9 2 17 10 17 17 0 16 -18 25 -28
15z"/>
<path d="M4708 13903 c-22 -5 -31 -32 -17 -50 19 -22 63 -12 67 14 4 24 -22
42 -50 36z"/>
<path d="M6990 13890 c0 -12 88 -52 103 -47 5 1 -14 15 -43 30 -59 31 -60 31
-60 17z"/>
<path d="M26080 13856 c0 -3 109 -71 135 -84 25 -13 -7 11 -63 48 -60 38 -72
44 -72 36z"/>
<path d="M14230 13771 c0 -23 30 -37 42 -19 14 24 8 38 -17 38 -18 0 -25 -5
-25 -19z"/>
<path d="M14773 13783 c-22 -8 -15 -43 7 -43 13 0 20 7 20 19 0 22 -9 30 -27
24z"/>
<path d="M6150 13700 c0 -5 5 -10 11 -10 5 0 7 5 4 10 -3 6 -8 10 -11 10 -2 0
-4 -4 -4 -10z"/>
<path d="M13890 13590 c0 -5 5 -10 10 -10 6 0 10 5 10 10 0 6 -4 10 -10 10 -5
0 -10 -4 -10 -10z"/>
<path d="M26375 13560 c-3 -5 -1 -10 4 -10 6 0 11 5 11 10 0 6 -2 10 -4 10 -3
0 -8 -4 -11 -10z"/>
<path d="M4895 13540 c3 -5 10 -10 16 -10 5 0 9 5 9 10 0 6 -7 10 -16 10 -8 0
-12 -4 -9 -10z"/>
<path d="M22332 13419 c2 -6 8 -10 13 -10 5 0 11 4 13 10 2 6 -4 11 -13 11 -9
0 -15 -5 -13 -11z"/>
<path d="M23825 13380 c-3 -5 -1 -10 4 -10 6 0 11 5 11 10 0 6 -2 10 -4 10 -3
0 -8 -4 -11 -10z"/>
<path d="M24747 13373 c-12 -11 -8 -23 8 -23 8 0 15 7 15 15 0 16 -12 20 -23
8z"/>
<path d="M9060 13360 c-19 -5 -41 -18 -49 -29 -7 -12 -17 -21 -22 -21 -4 0
-35 -16 -69 -36 -104 -63 -118 -137 -38 -211 26 -25 105 -62 130 -63 10 0 59
-23 109 -50 75 -42 104 -52 171 -61 70 -10 89 -9 139 6 53 16 65 17 116 5 166
-40 310 21 320 137 4 45 2 51 -39 97 -38 43 -52 51 -100 61 -31 6 -64 8 -74 4
-42 -17 -103 -10 -131 15 -16 13 -48 42 -73 63 -73 64 -120 80 -245 86 -60 3
-126 2 -145 -3z"/>
<path d="M4930 13350 c0 -5 12 -10 26 -10 14 0 23 4 19 10 -3 6 -15 10 -26 10
-10 0 -19 -4 -19 -10z"/>
<path d="M27624 13346 c-33 -15 -53 -36 -34 -36 18 0 70 30 70 40 0 12 2 12
-36 -4z"/>
<path d="M6273 13333 c-26 -10 -13 -33 17 -33 32 0 42 23 14 34 -9 3 -16 6
-17 5 -1 0 -8 -3 -14 -6z"/>
<path d="M27310 13310 c-8 -5 -12 -12 -8 -15 10 -10 49 5 43 16 -8 11 -16 11
-35 -1z"/>
<path d="M25739 13259 c-36 -13 -54 -53 -33 -74 20 -19 37 -19 76 1 34 18 79
65 71 76 -6 11 -82 8 -114 -3z"/>
<path d="M14540 13244 c0 -17 22 -14 28 4 2 7 -3 12 -12 12 -9 0 -16 -7 -16
-16z"/>
<path d="M5715 13219 c-4 -6 -5 -13 -2 -16 7 -7 27 6 27 18 0 12 -17 12 -25
-2z"/>
<path d="M22723 13193 c-7 -2 -13 -13 -13 -24 0 -14 7 -19 25 -19 29 0 45 28
24 41 -15 10 -18 10 -36 2z"/>
<path d="M8470 13165 c-17 -20 3 -45 36 -45 23 0 41 30 29 50 -9 15 -51 12
-65 -5z"/>
<path d="M14520 13160 c0 -5 5 -10 10 -10 6 0 10 5 10 10 0 6 -4 10 -10 10 -5
0 -10 -4 -10 -10z"/>
<path d="M6590 13119 c0 -5 5 -7 10 -4 6 3 10 8 10 11 0 2 -4 4 -10 4 -5 0
-10 -5 -10 -11z"/>
<path d="M25690 13097 c-14 -7 -25 -21 -25 -32 0 -33 64 -33 95 -1 13 14 21
28 18 31 -12 13 -66 14 -88 2z"/>
<path d="M27022 13089 c-34 -13 -25 -44 12 -44 35 0 59 30 36 45 -18 11 -18
11 -48 -1z"/>
<path d="M27987 13069 c7 -7 15 -10 18 -7 3 3 -2 9 -12 12 -14 6 -15 5 -6 -5z"/>
<path d="M22871 13061 c-22 -14 -6 -40 23 -37 34 4 42 12 26 31 -14 17 -29 19
-49 6z"/>
<path d="M26926 13034 c-26 -19 -46 -34 -42 -34 12 0 106 55 106 63 0 12 -13
6 -64 -29z"/>
<path d="M4550 13000 c0 -5 11 -10 25 -10 14 0 25 5 25 10 0 6 -11 10 -25 10
-14 0 -25 -4 -25 -10z"/>
<path d="M4982 13000 c-41 -10 -49 -17 -33 -33 13 -13 95 -17 107 -4 11 10 -9
42 -27 44 -8 0 -29 -2 -47 -7z"/>
<path d="M4185 12991 c-3 -5 -1 -12 5 -16 5 -3 10 1 10 9 0 18 -6 21 -15 7z"/>
<path d="M4825 12980 c-3 -5 3 -10 15 -10 12 0 18 5 15 10 -3 6 -10 10 -15 10
-5 0 -12 -4 -15 -10z"/>
<path d="M23096 12981 c-12 -19 -47 -126 -38 -116 14 15 54 116 49 122 -3 2
-8 0 -11 -6z"/>
<path d="M7270 12961 c0 -10 34 -21 68 -21 12 0 22 4 22 9 0 10 -34 21 -67 21
-13 0 -23 -4 -23 -9z"/>
<path d="M8544 12935 c22 -16 82 -20 90 -6 5 8 -49 21 -89 21 -20 -1 -20 -1
-1 -15z"/>
<path d="M25840 12920 c0 -5 6 -10 14 -10 8 0 18 5 21 10 3 6 -3 10 -14 10
-12 0 -21 -4 -21 -10z"/>
<path d="M22355 12910 c3 -5 8 -10 11 -10 2 0 4 5 4 10 0 6 -5 10 -11 10 -5 0
-7 -4 -4 -10z"/>
<path d="M24627 12873 c-14 -13 -6 -33 12 -33 25 0 38 20 20 31 -17 11 -24 11
-32 2z"/>
<path d="M9518 12863 c7 -3 16 -2 19 1 4 3 -2 6 -13 5 -11 0 -14 -3 -6 -6z"/>
<path d="M4516 12761 c-4 -5 -2 -12 3 -15 5 -4 12 -2 15 3 4 5 2 12 -3 15 -5
4 -12 2 -15 -3z"/>
<path d="M7560 12751 c-8 -5 -33 -12 -55 -16 -66 -11 -136 -53 -205 -121 -39
-37 -74 -64 -86 -64 -12 0 -33 -9 -48 -21 -31 -24 -35 -72 -10 -108 15 -21 22
-22 58 -16 90 17 122 11 220 -42 42 -23 132 -27 198 -10 31 8 91 36 133 63 96
61 136 123 128 197 -6 54 -37 87 -113 119 -48 21 -194 33 -220 19z"/>
<path d="M7330 12720 c0 -5 5 -10 10 -10 6 0 10 5 10 10 0 6 -4 10 -10 10 -5
0 -10 -4 -10 -10z"/>
<path d="M9486 12706 c-13 -12 -32 -26 -41 -30 -9 -3 -15 -14 -13 -23 3 -15
16 -19 68 -21 83 -4 108 3 122 33 27 59 -85 93 -136 41z"/>
<path d="M8515 12658 c-11 -6 -21 -12 -23 -14 -2 -1 1 -11 7 -22 12 -23 78
-36 115 -22 28 10 34 38 14 58 -15 15 -86 15 -113 0z"/>
<path d="M23676 12604 c-4 -10 -1 -14 6 -12 15 5 23 28 10 28 -5 0 -13 -7 -16
-16z"/>
<path d="M4480 12590 c0 -24 25 -27 34 -4 9 23 8 24 -14 24 -13 0 -20 -7 -20
-20z"/>
<path d="M27280 12580 c0 -5 5 -10 10 -10 6 0 10 5 10 10 0 6 -4 10 -10 10 -5
0 -10 -4 -10 -10z"/>
<path d="M23096 12543 c-12 -12 -6 -33 9 -33 8 0 15 6 15 14 0 17 -14 28 -24
19z"/>
<path d="M5766 12527 c-24 -18 -17 -48 17 -67 24 -13 30 -13 54 0 51 29 37 80
-21 80 -18 0 -40 -6 -50 -13z"/>
<path d="M6467 12531 c-26 -3 -48 -10 -49 -16 -1 -13 69 -25 110 -18 29 5 50
19 40 28 -8 9 -57 12 -101 6z"/>
<path d="M26667 12533 c-15 -14 -6 -24 20 -21 34 4 43 28 11 28 -14 0 -28 -3
-31 -7z"/>
<path d="M26595 12490 c-3 -5 1 -10 10 -10 9 0 13 5 10 10 -3 6 -8 10 -10 10
-2 0 -7 -4 -10 -10z"/>
<path d="M23850 12440 c0 -5 9 -10 20 -10 11 0 20 5 20 10 0 6 -9 10 -20 10
-11 0 -20 -4 -20 -10z"/>
<path d="M23836 12341 c-4 -5 -2 -12 3 -15 5 -4 12 -2 15 3 4 5 2 12 -3 15 -5
4 -12 2 -15 -3z"/>
<path d="M24765 12340 c3 -5 11 -10 16 -10 6 0 7 5 4 10 -3 6 -11 10 -16 10
-6 0 -7 -4 -4 -10z"/>
<path d="M6414 12311 c-2 -2 -4 -12 -4 -21 0 -24 36 -30 235 -40 163 -9 202
-14 290 -38 40 -11 308 -32 413 -32 71 0 65 19 -14 42 -183 51 -233 58 -445
56 -142 -1 -218 2 -249 12 -46 13 -218 29 -226 21z"/>
<path d="M23300 12295 c0 -10 7 -15 18 -13 21 4 19 22 -2 26 -10 2 -16 -3 -16
-13z"/>
<path d="M8687 12286 c-42 -16 -77 -43 -77 -61 0 -13 63 -35 99 -35 29 0 77
25 84 45 9 23 -3 45 -30 56 -30 11 -29 11 -76 -5z"/>
<path d="M26670 12230 c-47 -16 -139 -45 -205 -66 -138 -43 -248 -84 -241 -91
2 -3 64 14 136 37 122 38 133 40 144 24 10 -12 20 -15 40 -10 23 6 27 11 22
31 -5 21 -1 25 57 43 34 11 86 25 115 32 28 7 52 16 52 21 0 14 -29 9 -120
-21z"/>
<path d="M26915 12240 c-16 -26 20 -39 57 -19 17 9 18 13 7 20 -19 12 -56 11
-64 -1z"/>
<path d="M23394 12206 c-3 -14 -3 -30 1 -35 14 -24 85 -4 85 24 0 17 -30 35
-59 35 -14 0 -23 -8 -27 -24z"/>
<path d="M8547 12184 c-4 -4 -7 -15 -7 -25 0 -22 38 -34 80 -25 17 3 74 -4
128 -15 153 -33 482 -38 482 -8 0 5 -40 9 -88 9 -52 0 -111 7 -143 16 -33 10
-90 16 -144 16 -77 0 -207 16 -280 34 -11 3 -24 2 -28 -2z"/>
<path d="M25228 12161 c-26 -10 -51 -21 -55 -24 -3 -4 -20 -7 -37 -7 -17 -1
-49 -8 -71 -16 -22 -9 -57 -20 -78 -25 -47 -11 -183 -79 -217 -108 l-25 -20
45 -1 c29 0 58 8 80 21 19 12 64 32 100 45 36 12 93 34 128 49 34 14 95 34
135 44 58 14 72 21 72 37 0 24 -19 26 -77 5z"/>
<path d="M25995 12144 c-22 -13 -36 -24 -32 -24 11 0 87 39 87 45 0 9 -15 3
-55 -21z"/>
<path d="M4230 12140 c0 -12 37 -12 65 0 15 7 10 9 -22 9 -24 1 -43 -3 -43 -9z"/>
<path d="M25920 12110 c-8 -5 -10 -10 -5 -10 6 0 17 5 25 10 8 5 11 10 5 10
-5 0 -17 -5 -25 -10z"/>
<path d="M23780 12102 c0 -5 -47 -51 -105 -103 -57 -52 -105 -98 -105 -102 0
-9 223 191 228 205 2 4 -1 8 -7 8 -6 0 -11 -4 -11 -8z"/>
<path d="M2870 12069 c0 -5 5 -7 10 -4 6 3 10 8 10 11 0 2 -4 4 -10 4 -5 0
-10 -5 -10 -11z"/>
<path d="M9615 11981 c-25 -5 -27 -8 -12 -14 24 -9 196 -8 221 2 18 7 18 8 -5
14 -30 8 -164 7 -204 -2z"/>
<path d="M9345 11959 c-5 -7 28 -8 107 -3 62 4 115 8 117 10 2 2 -46 4 -107 4
-67 0 -113 -4 -117 -11z"/>
<path d="M4840 11944 c0 -10 7 -14 22 -12 32 5 35 28 4 28 -17 0 -26 -5 -26
-16z"/>
<path d="M9112 11934 c-33 -23 -27 -34 21 -34 46 0 69 14 60 36 -7 19 -53 18
-81 -2z"/>
<path d="M24277 11943 c-13 -12 -7 -23 13 -23 11 0 20 7 20 15 0 15 -21 21
-33 8z"/>
<path d="M9665 11926 c-36 -16 -62 -43 -66 -71 -2 -11 -19 -28 -38 -37 -19 -9
-41 -24 -49 -32 -13 -13 -12 -15 9 -20 13 -4 44 0 68 7 32 10 55 11 87 4 40
-9 50 -7 105 21 34 18 68 32 76 32 7 0 39 9 70 20 31 11 59 17 64 14 4 -2 16
0 26 5 10 6 35 17 56 26 67 26 32 33 -70 14 -54 -10 -112 -22 -129 -27 -28 -9
-33 -7 -58 24 -24 30 -32 34 -74 34 -26 -1 -60 -7 -77 -14z"/>
<path d="M28760 11915 c-16 -19 -4 -35 25 -35 13 0 27 5 30 10 8 13 -13 40
-30 40 -7 0 -18 -7 -25 -15z"/>
<path d="M29392 11918 c6 -18 28 -21 28 -4 0 9 -7 16 -16 16 -9 0 -14 -5 -12
-12z"/>
<path d="M9328 11913 c17 -2 47 -2 65 0 17 2 3 4 -33 4 -36 0 -50 -2 -32 -4z"/>
<path d="M26970 11899 c-19 -11 -30 -19 -24 -19 15 0 84 29 84 35 0 9 -25 3
-60 -16z"/>
<path d="M23482 11890 c-12 -30 -100 -152 -117 -162 -7 -4 -16 -20 -20 -35 -3
-16 -14 -36 -22 -45 -9 -10 -13 -18 -8 -18 18 0 188 255 182 272 -3 8 -9 3
-15 -12z"/>
<path d="M10155 11880 c-4 -6 7 -10 24 -10 17 0 31 5 31 10 0 6 -11 10 -24 10
-14 0 -28 -4 -31 -10z"/>
<path d="M4101 11821 c-9 -6 -11 -18 -7 -34 l6 -25 -163 -5 c-249 -8 -511 -28
-519 -41 -16 -24 1 -31 73 -29 252 5 391 12 444 22 33 6 89 9 125 5 84 -7 542
12 600 25 25 5 57 12 73 16 77 16 -21 49 -121 41 -37 -3 -139 -11 -226 -17
l-160 -11 -21 26 c-23 29 -80 44 -104 27z"/>
<path d="M24850 11730 c0 -5 11 -10 25 -10 14 0 25 5 25 10 0 6 -11 10 -25 10
-14 0 -25 -4 -25 -10z"/>
<path d="M9444 11705 c-4 -9 -2 -21 4 -27 15 -15 44 -1 40 19 -4 23 -36 29
-44 8z"/>
<path d="M6775 11700 c-8 -13 20 -24 40 -16 8 3 15 10 15 16 0 13 -47 13 -55
0z"/>
<path d="M24118 11688 c9 -9 15 -9 24 0 9 9 7 12 -12 12 -19 0 -21 -3 -12 -12z"/>
<path d="M5198 11639 c-51 -26 -48 -39 10 -39 57 0 99 24 81 46 -16 19 -47 17
-91 -7z"/>
<path d="M28635 11650 c-3 -5 -1 -10 4 -10 6 0 11 5 11 10 0 6 -2 10 -4 10 -3
0 -8 -4 -11 -10z"/>
<path d="M7210 11577 l-45 -22 52 -3 c55 -3 97 11 90 31 -6 20 -49 17 -97 -6z"/>
<path d="M5563 11573 c-19 -7 -16 -20 5 -25 22 -6 62 8 62 22 0 10 -45 13 -67
3z"/>
<path d="M9105 11570 c-3 -5 3 -10 14 -10 11 0 23 5 26 10 3 6 -3 10 -14 10
-11 0 -23 -4 -26 -10z"/>
<path d="M8980 11560 c0 -5 9 -10 21 -10 11 0 17 5 14 10 -3 6 -13 10 -21 10
-8 0 -14 -4 -14 -10z"/>
<path d="M9896 11541 c-3 -5 1 -12 10 -15 20 -8 54 2 54 15 0 12 -57 12 -64 0z"/>
<path d="M4900 11530 c0 -5 5 -10 10 -10 6 0 10 5 10 10 0 6 -4 10 -10 10 -5
0 -10 -4 -10 -10z"/>
<path d="M23414 11513 c-3 -10 -9 -25 -14 -33 -6 -13 1 -12 34 5 36 17 40 22
27 32 -23 18 -41 16 -47 -4z"/>
<path d="M6695 11510 c-16 -6 -73 -10 -125 -11 -102 0 -127 -7 -116 -34 5 -15
17 -16 109 -10 56 4 143 8 193 9 90 1 137 17 116 38 -13 13 -143 19 -177 8z"/>
<path d="M25280 11510 c-77 -8 -97 -17 -171 -82 -59 -50 -104 -67 -135 -50
-12 6 -37 7 -64 2 -89 -16 -142 -122 -90 -178 40 -42 80 -56 160 -54 76 2 88
2 240 0 82 -1 88 0 156 39 39 22 87 43 107 47 55 10 117 73 117 118 0 38 -18
59 -85 98 -22 13 -43 30 -48 37 -9 14 -72 34 -102 32 -11 -1 -49 -5 -85 -9z"/>
<path d="M28595 11500 c-3 -5 3 -10 15 -10 12 0 18 5 15 10 -3 6 -10 10 -15
10 -5 0 -12 -4 -15 -10z"/>
<path d="M23780 11493 c-8 -3 -28 -11 -45 -18 -16 -7 -50 -18 -74 -26 -24 -7
-53 -21 -65 -32 -21 -18 -21 -18 4 -4 14 8 50 18 80 22 61 7 140 38 140 54 0
12 -15 13 -40 4z"/>
<path d="M27557 11484 c-14 -14 -7 -25 13 -22 12 2 21 8 21 13 0 12 -24 18
-34 9z"/>
<path d="M24070 11449 c-19 -17 -26 -26 -15 -21 18 9 64 52 54 52 -2 0 -20
-14 -39 -31z"/>
<path d="M24297 11423 c-14 -13 -6 -23 18 -23 28 0 34 15 9 24 -19 7 -19 7
-27 -1z"/>
<path d="M5843 11413 c-25 -10 -12 -24 19 -21 37 4 52 28 16 27 -12 0 -29 -3
-35 -6z"/>
<path d="M7368 11413 c6 -2 18 -2 25 0 6 3 1 5 -13 5 -14 0 -19 -2 -12 -5z"/>
<path d="M23460 11383 c-27 -12 -31 -17 -17 -20 17 -4 87 22 87 32 0 10 -36 4
-70 -12z"/>
<path d="M25834 11355 c-13 -32 23 -48 47 -19 10 13 10 17 -2 25 -21 13 -39
11 -45 -6z"/>
<path d="M24100 11305 c-44 -45 -51 -55 -34 -55 22 0 93 50 107 76 8 14 2 34
-11 34 -4 0 -32 -25 -62 -55z"/>
<path d="M5080 11340 c0 -5 4 -10 9 -10 6 0 13 5 16 10 3 6 -1 10 -9 10 -9 0
-16 -4 -16 -10z"/>
<path d="M24487 11293 c-12 -11 -8 -23 7 -23 8 0 16 7 20 15 5 15 -14 21 -27
8z"/>
<path d="M9290 11253 c-33 -6 -47 -20 -33 -34 13 -13 97 7 114 27 9 12 5 14
-22 13 -19 -1 -45 -4 -59 -6z"/>
<path d="M28885 11230 c-3 -5 3 -10 14 -10 12 0 21 5 21 10 0 6 -6 10 -14 10
-8 0 -18 -4 -21 -10z"/>
<path d="M28524 11219 c-15 -25 41 -38 78 -18 17 9 18 13 7 20 -20 12 -77 11
-85 -2z"/>
<path d="M28685 11210 c4 -6 11 -8 16 -5 14 9 11 15 -7 15 -8 0 -12 -5 -9 -10z"/>
<path d="M10335 11202 c-11 -1 -31 -12 -45 -23 l-25 -21 45 7 c48 6 83 29 58
37 -7 2 -22 2 -33 0z"/>
<path d="M26773 11203 c-13 -2 -23 -9 -23 -15 0 -6 10 -8 23 -4 12 3 25 6 30
6 4 0 7 5 7 10 0 6 -3 9 -7 9 -5 -1 -18 -4 -30 -6z"/>
<path d="M8732 11174 c-18 -8 -63 -15 -100 -15 -79 -1 -109 -13 -91 -35 15
-18 68 -18 194 2 55 8 125 18 155 21 66 7 96 24 59 34 -44 13 -183 8 -217 -7z"/>
<path d="M25770 11180 c-21 -7 -19 -8 18 -9 23 -1 42 4 42 9 0 12 -24 12 -60
0z"/>
<path d="M8043 11163 c-12 -2 -27 -11 -35 -20 -12 -15 -9 -16 27 -10 22 4 52
7 66 7 14 0 34 7 45 15 17 13 15 14 -31 13 -27 0 -60 -3 -72 -5z"/>
<path d="M10194 11134 c-18 -14 -18 -14 6 -3 31 14 36 19 24 19 -6 0 -19 -7
-30 -16z"/>
<path d="M10609 11063 c-30 -32 -65 -76 -78 -98 -13 -22 -39 -54 -57 -72 -36
-34 -44 -63 -18 -63 27 0 234 245 234 278 0 26 -29 10 -81 -45z"/>
<path d="M10386 11094 c-8 -21 1 -34 24 -34 20 0 44 32 33 44 -12 12 -51 6
-57 -10z"/>
<path d="M7890 11063 c-55 -19 -53 -17 -45 -42 5 -18 14 -21 69 -21 66 0 86
11 86 46 0 37 -36 42 -110 17z"/>
<path d="M28930 11040 c0 -5 5 -10 11 -10 5 0 7 5 4 10 -3 6 -8 10 -11 10 -2
0 -4 -4 -4 -10z"/>
<path d="M26435 11028 c-33 -12 -86 -46 -97 -63 -14 -19 -8 -75 11 -114 24
-46 122 -109 197 -127 62 -14 104 -7 184 32 49 23 60 25 99 16 55 -12 67 -8
80 28 8 24 6 34 -10 55 -12 14 -31 25 -44 25 -14 0 -29 9 -35 20 -6 11 -33 38
-61 60 -84 66 -238 98 -324 68z"/>
<path d="M9190 11019 c0 -5 5 -7 10 -4 6 3 10 8 10 11 0 2 -4 4 -10 4 -5 0
-10 -5 -10 -11z"/>
<path d="M10430 11010 c0 -5 7 -10 15 -10 8 0 15 5 15 10 0 6 -7 10 -15 10 -8
0 -15 -4 -15 -10z"/>
<path d="M25002 11008 c-18 -18 -14 -46 8 -58 27 -15 125 -9 125 7 0 19 -66
63 -95 63 -14 0 -31 -5 -38 -12z"/>
<path d="M5573 10973 c-18 -7 -16 -20 3 -27 19 -7 47 12 38 25 -6 10 -21 10
-41 2z"/>
<path d="M10010 10960 c-29 -29 -25 -40 14 -40 38 0 83 30 72 48 -11 19 -64
14 -86 -8z"/>
<path d="M25757 10963 c-27 -26 17 -57 68 -47 37 7 49 36 19 48 -21 8 -79 8
-87 -1z"/>
<path d="M10358 10953 c7 -3 16 -2 19 1 4 3 -2 6 -13 5 -11 0 -14 -3 -6 -6z"/>
<path d="M28946 10922 c-2 -4 -1 -14 4 -21 10 -17 31 -5 23 14 -6 16 -19 20
-27 7z"/>
<path d="M10087 10879 c-35 -29 -49 -59 -27 -59 12 0 90 71 90 82 0 17 -27 7
-63 -23z"/>
<path d="M7481 10877 c-19 -7 -51 -32 -70 -54 -20 -22 -46 -46 -59 -52 -16 -8
-22 -20 -20 -34 2 -18 9 -22 33 -20 42 4 43 4 111 -3 68 -7 101 5 146 53 34
36 43 72 25 97 -18 24 -116 32 -166 13z"/>
<path d="M14295 10870 c10 -11 23 -20 28 -20 6 0 2 9 -8 20 -10 11 -23 20 -28
20 -6 0 -2 -9 8 -20z"/>
<path d="M27367 10863 c-17 -16 -3 -23 48 -23 63 0 73 14 18 24 -49 8 -58 7
-66 -1z"/>
<path d="M27907 10864 c-14 -14 -7 -43 12 -54 29 -15 73 7 69 34 -2 16 -11 22
-38 24 -20 2 -39 0 -43 -4z"/>
<path d="M9795 10845 c-33 -7 -82 -22 -110 -33 -27 -10 -77 -22 -110 -26 -146
-16 -279 -56 -256 -79 7 -7 21 -6 48 6 21 9 56 19 78 23 22 3 86 14 143 25 57
10 129 19 161 19 63 0 192 30 217 51 36 30 -61 38 -171 14z"/>
<path d="M5017 10828 c-26 -11 -47 -24 -47 -29 0 -8 76 -3 108 7 16 5 16 31
-1 37 -7 3 -34 -4 -60 -15z"/>
<path d="M14705 10839 c-10 -15 3 -25 16 -12 7 7 7 13 1 17 -6 3 -14 1 -17 -5z"/>
<path d="M5462 10824 c4 -21 22 -23 26 -1 2 10 -3 17 -13 17 -10 0 -15 -6 -13
-16z"/>
<path d="M10566 10809 c-26 -31 -33 -49 -18 -49 11 0 36 28 51 58 17 32 -3 27
-33 -9z"/>
<path d="M10006 10753 c-11 -11 -6 -23 9 -23 8 0 15 4 15 9 0 13 -16 22 -24
14z"/>
<path d="M10060 10749 c0 -5 5 -7 10 -4 6 3 10 8 10 11 0 2 -4 4 -10 4 -5 0
-10 -5 -10 -11z"/>
<path d="M10645 10710 c-11 -17 -27 -33 -37 -35 -9 -3 -24 -25 -33 -48 -9 -23
-28 -54 -42 -69 -15 -16 -23 -33 -20 -42 8 -20 37 -9 37 13 0 10 13 27 30 39
34 26 75 93 84 140 3 17 4 32 3 32 -1 0 -11 -14 -22 -30z"/>
<path d="M10030 10700 c-6 -11 -8 -20 -5 -20 14 0 45 21 45 30 0 18 -29 10
-40 -10z"/>
<path d="M27390 10689 c-41 -4 -104 -12 -140 -17 -36 -5 -115 -7 -175 -4 -90
4 -130 0 -210 -17 -120 -27 -159 -41 -147 -53 13 -13 304 8 387 28 39 9 113
18 165 19 133 3 210 14 210 31 0 19 -8 20 -90 13z"/>
<path d="M25639 10664 c-9 -11 -10 -20 -2 -32 17 -28 54 -35 103 -22 l45 12
-33 29 c-37 33 -91 39 -113 13z"/>
<path d="M10212 10651 c-25 -10 -50 -29 -61 -47 -10 -16 -43 -49 -74 -73 -32
-24 -57 -49 -57 -57 0 -26 22 -25 58 2 l37 27 -27 -29 c-52 -56 -31 -77 54
-54 72 20 85 90 17 90 l-30 0 28 39 c15 21 42 47 60 56 18 10 42 28 54 41 21
23 21 24 3 23 -10 -1 -38 -9 -62 -18z"/>
<path d="M25730 10584 c-36 -7 -102 -13 -147 -14 -45 0 -94 -5 -110 -11 -15
-6 -61 -12 -101 -14 -40 -2 -76 -5 -78 -8 -3 -3 29 -8 71 -12 87 -8 196 -1
298 21 38 8 91 14 118 14 43 0 50 3 47 17 -4 23 -19 24 -98 7z"/>
<path d="M9020 10548 c-47 -10 -125 -32 -175 -48 -49 -16 -119 -36 -155 -45
-126 -31 -160 -45 -160 -66 0 -26 27 -25 120 5 82 26 190 54 260 66 45 8 192
62 220 80 13 9 13 11 0 20 -8 5 -17 9 -20 9 -3 -1 -43 -10 -90 -21z"/>
<path d="M29123 10563 c9 -2 25 -2 35 0 9 3 1 5 -18 5 -19 0 -27 -2 -17 -5z"/>
<path d="M7895 10510 l-19 -21 39 3 c27 2 40 8 40 18 0 23 -39 23 -60 0z"/>
<path d="M15687 10519 c7 -7 15 -10 18 -7 3 3 -2 9 -12 12 -14 6 -15 5 -6 -5z"/>
<path d="M14032 10494 c-30 -21 -26 -58 6 -62 13 -2 30 2 38 8 19 16 18 56 -2
64 -20 8 -16 9 -42 -10z"/>
<path d="M24855 10441 c-36 -6 -38 -7 -15 -14 34 -9 132 -9 148 2 9 5 1 10
-25 14 -41 7 -49 7 -108 -2z"/>
<path d="M25061 10426 c10 -9 139 -14 139 -6 0 6 -32 10 -72 10 -39 0 -69 -2
-67 -4z"/>
<path d="M6770 10410 c0 -5 7 -10 15 -10 8 0 15 5 15 10 0 6 -7 10 -15 10 -8
0 -15 -4 -15 -10z"/>
<path d="M25323 10405 c-8 -21 0 -27 38 -28 40 -2 48 16 14 31 -34 16 -44 15
-52 -3z"/>
<path d="M28660 10410 c0 -5 7 -10 15 -10 8 0 15 5 15 10 0 6 -7 10 -15 10 -8
0 -15 -4 -15 -10z"/>
<path d="M24844 10385 c-22 -22 -32 -26 -58 -20 -128 27 -167 32 -163 22 3
-11 41 -25 142 -52 33 -9 77 -25 97 -36 26 -14 54 -19 90 -18 29 1 70 -2 91
-6 48 -10 50 9 2 32 -19 9 -35 25 -37 36 -4 28 -48 58 -96 64 -35 5 -44 2 -68
-22z"/>
<path d="M24540 10360 c0 -5 9 -10 21 -10 11 0 17 5 14 10 -3 6 -13 10 -21 10
-8 0 -14 -4 -14 -10z"/>
<path d="M29191 10299 c-19 -21 -24 -21 -178 -13 -176 10 -213 10 -239 0 -62
-24 102 -46 376 -51 113 -2 237 -7 275 -10 39 -3 113 -7 165 -9 52 -2 115 -7
140 -10 49 -7 76 3 67 27 -4 12 -44 16 -219 21 -249 8 -309 14 -307 29 3 29
-3 37 -31 37 -17 0 -37 -9 -49 -21z"/>
<path d="M25102 10228 c-7 -7 -12 -16 -12 -20 0 -12 28 -10 36 3 10 17 -10 31
-24 17z"/>
<path d="M27160 10220 c0 -5 9 -10 21 -10 11 0 17 5 14 10 -3 6 -13 10 -21 10
-8 0 -14 -4 -14 -10z"/>
<path d="M28345 10180 c-3 -5 -4 -14 -1 -19 9 -13 64 -21 88 -12 22 8 22 9 -9
25 -36 18 -69 21 -78 6z"/>
<path d="M26782 10128 c3 -8 25 -14 54 -16 47 -2 48 -2 24 13 -31 18 -83 20
-78 3z"/>
<path d="M25360 10120 c0 -5 7 -10 15 -10 8 0 15 5 15 10 0 6 -7 10 -15 10 -8
0 -15 -4 -15 -10z"/>
<path d="M28092 10118 c3 -7 15 -15 27 -16 16 -3 22 1 19 10 -3 7 -15 15 -27
16 -16 3 -22 -1 -19 -10z"/>
<path d="M25460 10110 c0 -5 5 -10 10 -10 6 0 10 5 10 10 0 6 -4 10 -10 10 -5
0 -10 -4 -10 -10z"/>
<path d="M9420 10086 c-25 -7 -78 -25 -118 -39 -40 -15 -77 -27 -82 -27 -5 0
-7 14 -3 30 5 26 3 30 -17 30 -12 0 -59 -20 -103 -44 -45 -24 -102 -50 -127
-56 -25 -7 -57 -21 -72 -31 -15 -11 -53 -29 -84 -39 -63 -22 -89 -41 -110 -82
-18 -35 -3 -65 38 -73 33 -8 61 0 111 32 72 46 174 74 285 80 102 6 104 5 131
-21 26 -25 29 -26 42 -10 8 9 39 35 69 57 97 70 180 160 180 194 0 17 -77 16
-140 -1z"/>
<path d="M24743 10093 c9 -2 23 -2 30 0 6 3 -1 5 -18 5 -16 0 -22 -2 -12 -5z"/>
<path d="M27125 10072 c-19 -9 -19 -9 0 -19 29 -15 311 -28 319 -14 10 16 -27
30 -75 29 -24 -1 -84 2 -134 5 -49 4 -99 3 -110 -1z"/>
<path d="M9687 9998 c-48 -34 -62 -68 -29 -68 19 0 100 53 114 74 26 38 -26
34 -85 -6z"/>
<path d="M6980 9996 c-38 -14 -143 -69 -200 -105 -19 -12 -52 -27 -73 -33 -40
-12 -62 -39 -53 -64 9 -22 43 -16 87 15 22 17 57 35 77 42 20 6 73 26 117 44
44 18 94 38 111 44 17 7 31 17 31 24 0 7 4 20 8 30 6 14 2 17 -31 16 -22 0
-55 -6 -74 -13z"/>
<path d="M27880 10000 c-10 -6 -7 -10 13 -16 34 -8 46 1 20 14 -11 6 -25 7
-33 2z"/>
<path d="M14700 9955 c0 -9 5 -15 11 -13 6 2 11 8 11 13 0 5 -5 11 -11 13 -6
2 -11 -4 -11 -13z"/>
<path d="M25194 9866 c11 -9 36 -16 55 -16 48 0 28 17 -29 25 -42 6 -44 5 -26
-9z"/>
<path d="M7168 9826 c-49 -15 -62 -30 -18 -21 49 10 101 33 75 33 -11 0 -37
-5 -57 -12z"/>
<path d="M24410 9831 c0 -14 10 -18 55 -26 l40 -6 -35 20 c-38 22 -60 26 -60
12z"/>
<path d="M25548 9823 c-55 -5 -63 -20 -15 -27 175 -27 260 -36 277 -31 40 13
13 30 -66 42 -136 19 -148 20 -196 16z"/>
<path d="M26136 9801 c13 -13 104 -24 104 -13 0 12 -35 22 -79 22 -21 0 -31
-4 -25 -9z"/>
<path d="M10840 9785 c-10 -13 -9 -15 9 -15 12 0 21 6 21 15 0 8 -4 15 -9 15
-5 0 -14 -7 -21 -15z"/>
<path d="M5812 9769 c2 -6 8 -10 13 -10 5 0 11 4 13 10 2 6 -4 11 -13 11 -9 0
-15 -5 -13 -11z"/>
<path d="M24171 9748 c34 -64 152 -198 174 -198 22 0 18 13 -11 41 -14 13 -33
37 -41 53 -21 40 -103 126 -120 126 -11 0 -11 -4 -2 -22z"/>
<path d="M24355 9761 c-9 -16 3 -31 26 -31 14 0 19 6 17 17 -4 20 -33 29 -43
14z"/>
<path d="M14901 9736 c-11 -13 -5 -46 8 -46 19 0 44 29 38 44 -8 20 -30 21
-46 2z"/>
<path d="M26254 9725 c-13 -34 4 -46 58 -43 68 4 78 29 20 46 -52 16 -71 15
-78 -3z"/>
<path d="M10120 9665 c-24 -25 -40 -45 -34 -45 13 0 89 78 83 85 -3 2 -25 -16
-49 -40z"/>
<path d="M24348 9683 c7 -3 16 -2 19 1 4 3 -2 6 -13 5 -11 0 -14 -3 -6 -6z"/>
<path d="M24631 9661 c-23 -15 5 -41 45 -41 39 0 38 20 -2 39 -29 13 -26 13
-43 2z"/>
<path d="M28090 9650 c0 -5 12 -10 26 -10 14 0 23 4 19 10 -3 6 -15 10 -26 10
-10 0 -19 -4 -19 -10z"/>
<path d="M24580 9606 c0 -9 62 -66 71 -66 18 0 9 19 -22 44 -28 24 -49 33 -49
22z"/>
<path d="M26521 9576 c-20 -24 -6 -62 35 -93 36 -27 56 -30 139 -23 17 1 37 1
45 -1 9 -3 16 5 18 19 2 12 -1 22 -7 22 -5 0 -27 19 -49 42 -38 39 -44 42
-104 46 -50 3 -67 1 -77 -12z"/>
<path d="M24716 9561 c-4 -6 -1 -13 6 -16 57 -21 121 -35 163 -35 41 0 231
-34 323 -57 35 -9 26 14 -10 25 -43 13 -121 29 -179 37 -25 3 -70 15 -100 26
-64 25 -193 37 -203 20z"/>
<path d="M28190 9545 c0 -8 5 -15 10 -15 6 0 10 7 10 15 0 8 -4 15 -10 15 -5
0 -10 -7 -10 -15z"/>
<path d="M28500 9545 c0 -20 20 -27 62 -23 l33 3 -32 18 c-39 21 -63 22 -63 2z"/>
<path d="M24239 9532 c12 -22 41 -48 41 -36 -1 11 -36 54 -44 54 -4 0 -2 -8 3
-18z"/>
<path d="M12362 9467 c-17 -41 -34 -87 -37 -103 -4 -16 -21 -57 -37 -90 -31
-61 -32 -99 -5 -88 8 3 21 22 30 42 33 82 71 179 82 212 41 117 14 138 -33 27z"/>
<path d="M10869 9482 c-43 -28 -81 -63 -125 -113 -11 -13 -44 -44 -72 -68 -35
-30 -52 -52 -52 -67 0 -13 5 -24 10 -24 12 0 90 81 90 93 0 4 26 24 58 43 69
44 119 89 138 126 25 48 16 50 -47 10z"/>
<path d="M24675 9480 c-3 -5 1 -10 9 -10 9 0 16 5 16 10 0 6 -4 10 -9 10 -6 0
-13 -4 -16 -10z"/>
<path d="M24186 9443 c8 -32 32 -69 63 -97 12 -11 21 -25 21 -31 0 -7 7 -15
15 -19 19 -7 20 18 1 33 -8 6 -20 26 -27 44 -7 18 -28 47 -46 65 l-34 34 7
-29z"/>
<path d="M24654 9445 c21 -16 32 -13 21 4 -3 6 -14 11 -23 11 -15 -1 -15 -2 2
-15z"/>
<path d="M9413 9430 c-12 -5 -40 -34 -62 -64 -40 -53 -49 -76 -33 -76 21 0
148 61 159 76 19 26 16 52 -6 64 -23 12 -29 12 -58 0z"/>
<path d="M11671 9427 c-6 -6 -11 -16 -11 -22 0 -6 -11 -21 -24 -34 -19 -18
-33 -49 -51 -117 -2 -7 -40 -31 -84 -55 -81 -44 -88 -52 -72 -78 7 -11 18 -9
62 13 29 14 58 26 63 26 6 0 34 22 62 49 41 39 52 56 58 92 3 24 14 58 23 75
15 29 15 34 1 47 -11 12 -18 13 -27 4z"/>
<path d="M24480 9420 c0 -5 17 -22 37 -37 21 -15 47 -39 60 -53 l22 -25 -27
-5 c-18 -3 -28 -12 -30 -27 -4 -25 15 -37 71 -47 44 -8 50 10 15 45 l-23 23
27 -17 c64 -40 65 -5 2 43 -26 19 -51 44 -56 55 -10 21 -98 62 -98 45z"/>
<path d="M12217 9413 c-12 -11 -8 -23 7 -23 8 0 16 7 20 15 5 15 -14 21 -27 8z"/>
<path d="M25368 9327 c14 -17 140 -59 260 -87 51 -11 111 -28 134 -36 55 -19
80 -18 76 3 -2 12 -28 23 -88 40 -47 12 -114 32 -150 43 -86 26 -191 50 -219
50 -18 0 -21 -3 -13 -13z"/>
<path d="M26282 9298 c3 -7 17 -14 31 -16 21 -3 26 0 21 12 -7 19 -58 22 -52
4z"/>
<path d="M3850 9256 c0 -10 9 -16 21 -16 24 0 21 23 -4 28 -10 2 -17 -3 -17
-12z"/>
<path d="M7977 9223 c-13 -13 -7 -32 8 -27 8 4 15 12 15 20 0 15 -12 19 -23 7z"/>
<path d="M27180 9220 c0 -5 5 -10 10 -10 6 0 10 5 10 10 0 6 -4 10 -10 10 -5
0 -10 -4 -10 -10z"/>
<path d="M9029 9104 c-59 -44 -63 -45 -76 -28 -7 10 -13 22 -13 27 0 5 -16 7
-37 4 -40 -7 -113 -69 -111 -96 4 -59 -2 -72 -52 -103 -27 -17 -50 -35 -50
-39 0 -16 15 -9 67 29 29 20 72 49 96 64 52 33 247 177 247 184 0 8 -9 3 -71
-42z"/>
<path d="M7472 9068 c-17 -17 -15 -28 6 -28 19 0 42 18 42 32 0 12 -35 9 -48
-4z"/>
<path d="M11691 8986 c-12 -13 -30 -38 -39 -54 -9 -17 -46 -66 -81 -109 -44
-52 -70 -94 -81 -130 -9 -29 -22 -59 -28 -65 -7 -7 -12 -17 -12 -23 0 -6 -11
-21 -25 -33 -33 -29 -34 -72 -2 -72 26 0 47 34 47 77 0 17 13 38 39 62 21 20
46 52 55 71 8 19 20 42 25 50 5 8 23 46 40 84 17 38 45 84 61 103 17 18 30 40
30 48 0 20 -3 19 -29 -9z"/>
<path d="M25040 8971 c0 -21 51 -80 120 -137 78 -65 94 -73 103 -50 17 43 196
20 310 -39 77 -40 97 -43 121 -16 24 27 6 65 -43 91 -22 11 -45 20 -52 20 -6
0 -23 8 -37 19 -15 10 -45 24 -67 31 -22 7 -70 28 -107 47 -68 36 -94 36 -83
2 8 -25 4 -24 -95 11 -81 28 -170 40 -170 21z"/>
<path d="M24870 8918 c0 -16 73 -68 94 -68 28 0 17 24 -23 53 -42 29 -71 35
-71 15z"/>
<path d="M26957 8889 c3 -11 18 -25 32 -31 14 -6 41 -17 58 -25 18 -7 52 -20
75 -29 23 -8 62 -26 86 -39 45 -25 82 -32 82 -16 0 21 -13 41 -26 41 -8 0 -65
27 -127 60 -78 41 -125 60 -149 60 -32 0 -35 -3 -31 -21z"/>
<path d="M10340 8850 c0 -5 5 -10 10 -10 6 0 10 5 10 10 0 6 -4 10 -10 10 -5
0 -10 -4 -10 -10z"/>
<path d="M26870 8765 c19 -7 42 -13 50 -13 8 0 -1 6 -20 13 -19 7 -42 13 -50
13 -8 0 1 -6 20 -13z"/>
<path d="M12050 8730 c0 -5 5 -10 10 -10 6 0 10 5 10 10 0 6 -4 10 -10 10 -5
0 -10 -4 -10 -10z"/>
<path d="M27920 8720 c0 -5 5 -10 10 -10 6 0 10 5 10 10 0 6 -4 10 -10 10 -5
0 -10 -4 -10 -10z"/>
<path d="M16402 8691 c15 -44 214 -241 347 -344 20 -15 58 -50 84 -77 47 -48
87 -65 87 -36 0 13 -153 156 -168 156 -4 0 -32 30 -62 66 -30 35 -105 105
-166 154 -107 86 -130 101 -122 81z"/>
<path d="M24570 8667 c0 -2 15 -16 33 -33 l32 -29 -29 33 c-28 30 -36 37 -36
29z"/>
<path d="M6455 8620 c-3 -5 -1 -10 4 -10 6 0 11 5 11 10 0 6 -2 10 -4 10 -3 0
-8 -4 -11 -10z"/>
<path d="M12070 8540 c0 -5 5 -10 10 -10 6 0 10 5 10 10 0 6 -4 10 -10 10 -5
0 -10 -4 -10 -10z"/>
<path d="M12005 8489 c-4 -6 -5 -13 -2 -16 7 -7 27 6 27 18 0 12 -17 12 -25
-2z"/>
<path d="M25107 8463 c-12 -11 -8 -50 6 -60 19 -15 108 -46 114 -40 8 8 -54
94 -72 101 -21 8 -40 8 -48 -1z"/>
<path d="M10900 8350 c0 -5 5 -10 10 -10 6 0 10 5 10 10 0 6 -4 10 -10 10 -5
0 -10 -4 -10 -10z"/>
<path d="M29435 8331 c-6 -11 9 -23 19 -14 9 9 7 23 -3 23 -6 0 -12 -4 -16 -9z"/>
<path d="M26250 8296 c0 -9 5 -16 10 -16 6 0 10 4 10 9 0 6 -4 13 -10 16 -5 3
-10 -1 -10 -9z"/>
<path d="M3840 8276 c0 -10 9 -16 21 -16 24 0 21 23 -4 28 -10 2 -17 -3 -17
-12z"/>
<path d="M11750 8239 c-97 -86 -113 -103 -129 -138 -9 -20 -31 -56 -50 -81
-18 -25 -43 -65 -55 -90 -11 -25 -26 -49 -33 -55 -16 -13 -78 -133 -86 -165
-3 -14 -45 -89 -92 -167 -47 -78 -85 -145 -85 -149 0 -4 -9 -17 -20 -29 -39
-41 -45 -115 -10 -115 19 0 60 44 60 63 0 24 175 355 206 389 18 21 44 59 58
85 13 26 36 59 51 73 15 14 45 60 66 102 21 43 50 85 64 94 52 34 144 225 108
224 -5 0 -28 -19 -53 -41z"/>
<path d="M25406 8232 c70 -60 297 -212 304 -205 3 3 -3 10 -14 17 -52 32 -66
48 -66 80 0 22 -9 41 -28 59 -31 30 -79 36 -88 12 -9 -22 -21 -19 -64 15 -21
17 -42 30 -46 30 -4 0 -4 -4 2 -8z"/>
<path d="M26620 8181 c0 -9 23 -21 41 -21 4 0 6 7 3 15 -7 16 -44 21 -44 6z"/>
<path d="M18920 8155 c-16 -19 0 -19 26 0 16 12 16 14 3 15 -9 0 -22 -7 -29
-15z"/>
<path d="M11215 8095 c-70 -113 -95 -146 -147 -194 -47 -43 -69 -74 -109 -156
-28 -57 -67 -121 -88 -144 -58 -63 -79 -121 -43 -121 23 0 67 46 77 80 11 37
76 140 95 150 10 5 43 53 75 107 32 54 71 116 87 138 38 52 81 142 76 157 -3
7 -13 -1 -23 -17z"/>
<path d="M7690 8066 c-36 -24 -101 -75 -145 -113 -113 -97 -161 -133 -177
-133 -7 0 -38 -25 -68 -55 -30 -30 -60 -55 -67 -55 -20 0 -73 -63 -73 -87 0
-36 35 -28 97 22 30 25 60 45 67 45 13 0 57 32 100 73 21 21 26 31 17 36 -14
9 124 130 228 200 56 39 101 84 101 102 0 16 -14 10 -80 -35z"/>
<path d="M15570 8063 c0 -10 16 -48 35 -85 19 -37 39 -86 45 -108 10 -39 23
-50 34 -31 7 10 -11 56 -61 159 -37 76 -53 95 -53 65z"/>
<path d="M11800 8019 c-7 -11 -9 -24 -5 -27 7 -7 35 25 35 40 0 16 -19 8 -30
-13z"/>
<path d="M9410 8000 c0 -5 7 -10 15 -10 8 0 15 5 15 10 0 6 -7 10 -15 10 -8 0
-15 -4 -15 -10z"/>
<path d="M6349 7981 c-13 -11 -21 -22 -17 -26 12 -12 57 4 68 25 9 17 8 20 -9
20 -10 0 -29 -9 -42 -19z"/>
<path d="M29160 7950 c0 -5 5 -10 11 -10 5 0 7 5 4 10 -3 6 -8 10 -11 10 -2 0
-4 -4 -4 -10z"/>
<path d="M11606 7884 c-4 -9 -4 -19 -2 -22 10 -9 36 8 36 23 0 20 -26 19 -34
-1z"/>
<path d="M19669 7849 c-35 -28 -104 -90 -154 -139 -49 -49 -110 -107 -135
-129 -33 -29 -42 -43 -34 -51 8 -8 25 2 65 38 30 28 100 91 156 141 101 90
180 177 171 186 -3 3 -34 -18 -69 -46z"/>
<path d="M10557 7802 c-19 -20 -23 -37 -7 -27 10 6 33 45 27 45 -2 0 -11 -8
-20 -18z"/>
<path d="M12367 7763 c-4 -3 -7 -15 -7 -25 0 -28 34 -19 38 10 3 21 -16 31
-31 15z"/>
<path d="M29440 7570 c0 -5 7 -10 15 -10 8 0 15 5 15 10 0 6 -7 10 -15 10 -8
0 -15 -4 -15 -10z"/>
<path d="M8868 7475 c-6 -14 -8 -28 -5 -32 13 -12 57 16 57 37 0 30 -38 26
-52 -5z"/>
<path d="M7375 7432 c-38 -31 -129 -106 -200 -167 -72 -60 -144 -120 -160
-132 -17 -12 -27 -25 -23 -28 4 -4 103 72 220 170 241 201 243 203 237 209 -2
2 -35 -22 -74 -52z"/>
<path d="M4010 7460 c-8 -5 -12 -12 -8 -15 9 -9 48 4 48 16 0 12 -21 11 -40
-1z"/>
<path d="M23741 7435 c-1 -18 18 -55 60 -116 9 -13 35 -57 59 -97 23 -40 50
-78 59 -85 21 -16 66 -85 76 -117 9 -31 44 -70 62 -70 25 0 13 38 -27 86 -23
27 -53 76 -68 109 -16 36 -53 88 -92 130 -36 39 -79 95 -97 125 -21 36 -32 48
-32 35z"/>
<path d="M26430 7420 c6 -11 30 -34 53 -50 107 -76 208 -163 196 -170 -7 -5 7
-22 41 -49 28 -22 55 -41 60 -41 4 0 27 -16 49 -35 39 -31 71 -38 71 -13 0 17
-41 68 -54 68 -7 0 -28 16 -47 36 -18 20 -47 42 -64 50 -16 7 -70 47 -120 90
-88 75 -171 134 -187 134 -5 0 -4 -9 2 -20z"/>
<path d="M20366 7398 c-35 -54 -77 -161 -67 -171 7 -7 12 -4 17 9 3 10 18 48
34 84 33 78 41 100 35 100 -3 0 -11 -10 -19 -22z"/>
<path d="M3626 7387 c-21 -15 -24 -60 -7 -81 21 -26 69 -40 86 -26 23 19 18
68 -10 95 -27 28 -43 31 -69 12z"/>
<path d="M25135 7360 c-3 -5 -1 -10 4 -10 6 0 11 5 11 10 0 6 -2 10 -4 10 -3
0 -8 -4 -11 -10z"/>
<path d="M15365 7350 c-3 -6 -3 -19 0 -31 5 -16 14 -20 43 -17 39 3 57 32 30
49 -18 12 -65 11 -73 -1z"/>
<path d="M27480 7350 c0 -14 49 -44 58 -35 4 3 -4 15 -17 26 -26 21 -41 24
-41 9z"/>
<path d="M6460 7229 c0 -5 5 -7 10 -4 6 3 10 8 10 11 0 2 -4 4 -10 4 -5 0 -10
-5 -10 -11z"/>
<path d="M24250 7213 c0 -6 8 -17 18 -24 16 -13 16 -13 2 6 -8 11 -16 22 -17
24 -2 2 -3 0 -3 -6z"/>
<path d="M12956 7112 c-5 -8 -31 -125 -43 -191 -5 -29 -3 -33 13 -29 14 2 21
15 26 51 3 27 11 62 17 79 20 56 9 126 -13 90z"/>
<path d="M5715 7060 c3 -5 8 -10 11 -10 2 0 4 5 4 10 0 6 -5 10 -11 10 -5 0
-7 -4 -4 -10z"/>
<path d="M10640 7005 c0 -8 4 -15 9 -15 5 0 11 7 15 15 3 9 0 15 -9 15 -8 0
-15 -7 -15 -15z"/>
<path d="M25530 6956 c0 -17 38 -41 48 -31 9 9 -13 40 -32 43 -9 2 -16 -3 -16
-12z"/>
<path d="M26670 6955 c0 -4 12 -17 28 -29 15 -11 94 -77 175 -145 81 -68 151
-120 155 -116 4 3 -1 11 -10 16 -10 6 -87 67 -171 138 -162 134 -177 146 -177
136z"/>
<path d="M29312 6938 c5 -15 28 -23 28 -10 0 5 -7 13 -16 16 -10 4 -14 1 -12
-6z"/>
<path d="M10922 6906 c-17 -19 -33 -49 -37 -68 -11 -50 -108 -208 -155 -252
-44 -41 -86 -116 -115 -206 -20 -62 -59 -128 -80 -136 -19 -8 -59 -71 -75
-118 -13 -41 -5 -56 31 -56 16 0 86 122 119 210 17 43 59 98 81 105 21 7 118
183 147 270 14 39 30 77 37 85 11 14 44 82 81 168 18 42 4 41 -34 -2z"/>
<path d="M29580 6870 c-24 -24 -26 -66 -3 -74 20 -8 66 23 71 48 4 20 -15 46
-34 46 -8 0 -23 -9 -34 -20z"/>
<path d="M11288 6820 c-20 -36 -40 -83 -44 -105 -3 -22 -13 -53 -21 -68 -18
-36 -10 -65 12 -47 8 7 15 22 15 34 0 13 13 47 29 77 31 57 56 139 49 161 -3
7 -21 -17 -40 -52z"/>
<path d="M20483 6844 c-3 -8 -1 -20 5 -26 16 -16 47 -5 50 20 3 18 -1 22 -23
22 -14 0 -28 -7 -32 -16z"/>
<path d="M3505 6829 c-4 -6 -5 -13 -2 -16 7 -7 27 6 27 18 0 12 -17 12 -25 -2z"/>
<path d="M16280 6817 c0 -24 19 -58 141 -247 40 -63 92 -151 114 -195 30 -60
46 -81 63 -83 33 -5 29 37 -9 84 -18 22 -45 68 -61 104 -17 35 -49 91 -71 125
-45 65 -69 105 -87 145 -12 28 -69 90 -82 90 -4 0 -8 -10 -8 -23z"/>
<path d="M12611 6783 c-7 -16 -17 -48 -21 -73 -5 -25 -16 -67 -25 -95 -10 -27
-22 -63 -27 -80 -6 -16 -20 -64 -32 -106 -11 -42 -27 -83 -34 -92 -18 -21 -11
-61 10 -65 13 -3 21 10 33 53 9 31 23 68 31 83 8 15 14 41 14 58 0 16 4 34 9
40 15 17 71 223 71 264 0 47 -12 52 -29 13z"/>
<path d="M4271 6666 c-7 -9 -8 -17 -2 -20 14 -9 41 4 41 20 0 18 -24 18 -39 0z"/>
<path d="M22390 6652 c0 -24 28 -153 34 -160 21 -20 14 69 -11 161 -6 22 -23
22 -23 -1z"/>
<path d="M24180 6590 c0 -5 5 -10 11 -10 5 0 7 5 4 10 -3 6 -8 10 -11 10 -2 0
-4 -4 -4 -10z"/>
<path d="M15560 6565 c0 -12 32 -67 36 -63 7 7 -17 68 -27 68 -5 0 -9 -2 -9
-5z"/>
<path d="M23950 6533 c0 -13 61 -146 70 -153 4 -3 16 -32 28 -65 27 -81 84
-180 130 -225 20 -21 46 -60 56 -87 24 -60 68 -135 81 -140 6 -1 16 1 24 6 18
12 -14 83 -61 132 -21 23 -47 71 -67 125 -24 61 -46 101 -76 133 -55 59 -100
131 -120 191 -14 43 -65 108 -65 83z"/>
<path d="M23674 6445 c4 -20 18 -60 31 -89 13 -28 26 -59 29 -68 3 -10 11 -18
17 -18 12 0 10 8 -12 70 -39 114 -78 177 -65 105z"/>
<path d="M13628 6453 c-6 -22 0 -43 13 -43 11 0 12 31 0 48 -6 11 -9 10 -13
-5z"/>
<path d="M19798 6433 c-14 -16 -34 -44 -43 -63 -10 -19 -35 -60 -55 -90 -20
-30 -46 -75 -57 -100 -12 -25 -33 -60 -47 -79 -30 -41 -35 -74 -9 -69 10 2 28
24 39 49 12 25 55 97 94 160 93 146 107 169 115 197 9 30 -6 28 -37 -5z"/>
<path d="M11053 6439 c-16 -16 -17 -49 -3 -49 13 0 23 24 18 45 -2 13 -5 14
-15 4z"/>
<path d="M29715 6440 c3 -5 8 -10 11 -10 2 0 4 5 4 10 0 6 -5 10 -11 10 -5 0
-7 -4 -4 -10z"/>
<path d="M22650 6407 c0 -13 14 -68 31 -123 17 -54 33 -112 36 -129 3 -16 9
-34 13 -40 5 -5 13 -29 19 -52 7 -26 18 -43 26 -43 16 0 21 40 7 56 -5 5 -21
50 -36 99 -15 50 -33 108 -41 130 -7 22 -18 59 -24 83 -13 45 -31 57 -31 19z"/>
<path d="M4917 6393 c-11 -10 -8 -20 9 -37 21 -21 44 -20 44 2 0 31 -35 54
-53 35z"/>
<path d="M15112 6349 c1 -12 8 -24 15 -26 7 -3 9 3 6 17 -8 29 -25 37 -21 9z"/>
<path d="M29112 6321 c4 -13 18 -16 19 -4 0 4 -5 9 -11 12 -7 2 -11 -2 -8 -8z"/>
<path d="M20370 6226 c-15 -39 -12 -46 6 -13 9 16 13 31 10 34 -3 3 -10 -6
-16 -21z"/>
<path d="M12857 6198 c-16 -36 -59 -232 -73 -337 -6 -49 -5 -54 10 -48 10 4
20 7 22 7 2 0 4 18 4 40 0 22 9 73 20 113 31 117 42 179 38 222 l-4 40 -17
-37z"/>
<path d="M21876 6152 c-4 -13 -5 -26 -2 -29 10 -11 18 4 14 29 l-4 23 -8 -23z"/>
<path d="M8597 6142 c-22 -24 -49 -91 -42 -102 10 -16 18 -12 63 29 49 45 59
91 19 91 -13 0 -31 -8 -40 -18z"/>
<path d="M23870 6136 c0 -8 5 -18 10 -21 6 -3 10 1 10 9 0 8 -4 18 -10 21 -5
3 -10 -1 -10 -9z"/>
<path d="M28602 6108 c-16 -16 -15 -38 2 -38 18 0 39 27 31 40 -8 13 -18 13
-33 -2z"/>
<path d="M20727 6084 c-4 -4 -7 -14 -7 -23 0 -11 3 -12 11 -4 6 6 10 16 7 23
-2 6 -7 8 -11 4z"/>
<path d="M12930 5875 c0 -58 4 -105 9 -105 5 0 9 47 9 105 1 59 -3 105 -9 105
-5 0 -9 -46 -9 -105z"/>
<path d="M22475 5915 c2 -39 12 -95 21 -125 9 -30 17 -71 18 -90 1 -25 6 -36
19 -38 14 -3 17 1 13 20 -3 13 -15 72 -26 132 -12 59 -27 122 -36 140 -14 30
-14 28 -9 -39z"/>
<path d="M25740 5906 c0 -26 64 -85 77 -72 4 3 -3 27 -15 51 -25 52 -62 64
-62 21z"/>
<path d="M16230 5884 c0 -21 30 -84 40 -84 14 0 13 2 -15 51 -14 24 -25 39
-25 33z"/>
<path d="M22419 5783 c-5 -70 -4 -145 2 -149 5 -3 9 31 9 75 0 45 -2 81 -5 81
-3 0 -5 -3 -6 -7z"/>
<path d="M12930 5746 c0 -8 5 -18 10 -21 6 -3 10 3 10 14 0 12 -4 21 -10 21
-5 0 -10 -6 -10 -14z"/>
<path d="M6761 5588 c-145 -142 -182 -188 -149 -188 17 0 328 311 328 328 0
28 -31 4 -179 -140z"/>
<path d="M19856 5694 c-10 -14 -16 -30 -14 -35 2 -6 11 6 21 25 20 42 16 47
-7 10z"/>
<path d="M10763 5651 c-22 -16 -56 -49 -75 -72 -34 -42 -97 -165 -113 -219 -4
-14 -14 -34 -21 -45 -8 -11 -14 -28 -14 -38 0 -10 -20 -58 -44 -105 -24 -48
-47 -103 -51 -122 -9 -42 -48 -128 -74 -161 -10 -13 -28 -44 -39 -69 -12 -25
-25 -52 -30 -60 -17 -28 -42 -118 -42 -149 0 -26 4 -31 24 -31 25 0 66 41 66
67 0 7 8 30 19 51 10 20 26 69 35 107 12 50 34 96 75 160 32 50 64 101 71 115
7 14 16 27 20 30 13 9 97 184 105 218 7 33 64 142 89 172 22 25 66 131 66 156
0 32 -18 30 -67 -5z"/>
<path d="M22410 5610 c0 -5 5 -10 10 -10 6 0 10 5 10 10 0 6 -4 10 -10 10 -5
0 -10 -4 -10 -10z"/>
<path d="M27069 5593 c11 -21 245 -253 254 -253 21 0 -5 33 -117 145 -114 115
-162 153 -137 108z"/>
<path d="M3125 5564 c-42 -22 -95 -63 -95 -75 0 -24 91 12 130 51 39 39 19 52
-35 24z"/>
<path d="M24050 5549 c0 -16 41 -112 56 -129 18 -22 64 -111 64 -125 0 -18 76
-164 125 -240 62 -95 81 -134 90 -175 4 -19 15 -53 24 -75 10 -22 23 -52 29
-67 16 -39 48 -37 54 2 3 17 1 33 -2 35 -4 3 -10 17 -13 33 -3 15 -30 72 -61
125 -30 53 -57 111 -61 129 -4 18 -22 65 -40 103 -19 39 -45 99 -59 135 -14
36 -36 88 -50 116 -36 74 -156 177 -156 133z"/>
<path d="M18147 5500 c15 -22 28 -38 30 -36 6 6 -38 76 -47 76 -5 0 3 -18 17
-40z"/>
<path d="M29980 5472 c0 -18 82 -72 109 -72 22 0 -3 32 -44 55 -43 26 -65 31
-65 17z"/>
<path d="M18370 5410 c-6 -11 -8 -20 -6 -20 3 0 10 9 16 20 6 11 8 20 6 20 -3
0 -10 -9 -16 -20z"/>
<path d="M13347 5216 c-7 -19 11 -32 24 -19 6 6 5 14 -4 22 -12 9 -16 8 -20
-3z"/>
<path d="M22086 5202 c-3 -6 -1 -14 5 -17 15 -10 25 3 12 16 -7 7 -13 7 -17 1z"/>
<path d="M3030 5060 c0 -5 5 -10 10 -10 6 0 10 5 10 10 0 6 -4 10 -10 10 -5 0
-10 -4 -10 -10z"/>
<path d="M25200 5000 c0 -22 31 -70 45 -70 20 0 19 30 -1 58 -16 23 -44 30
-44 12z"/>
<path d="M9305 4953 c-16 -16 -35 -55 -35 -74 0 -23 42 -7 60 24 34 56 16 92
-25 50z"/>
<path d="M23300 4790 c-9 -16 -8 -38 4 -97 9 -41 16 -101 16 -133 0 -61 16
-113 78 -257 33 -75 42 -112 52 -199 6 -59 15 -115 20 -123 4 -9 11 -42 15
-74 8 -63 41 -117 64 -103 27 17 32 57 11 91 -11 18 -20 49 -20 69 0 21 -5 47
-12 59 -12 23 -27 110 -52 304 -29 222 -47 294 -96 393 -15 30 -37 63 -48 73
-20 18 -21 18 -32 -3z"/>
<path d="M22870 4749 c0 -17 4 -48 10 -68 5 -20 12 -49 15 -64 8 -41 27 -22
20 21 -19 117 -45 182 -45 111z"/>
<path d="M3410 4750 c0 -5 5 -10 11 -10 5 0 7 5 4 10 -3 6 -8 10 -11 10 -2 0
-4 -4 -4 -10z"/>
<path d="M25611 4724 c0 -11 3 -14 6 -6 3 7 2 16 -1 19 -3 4 -6 -2 -5 -13z"/>
<path d="M11765 4692 c-46 -38 -112 -182 -139 -299 -22 -98 -57 -350 -50 -366
2 -7 0 -27 -7 -43 -11 -30 -28 -129 -34 -199 -2 -22 -12 -60 -24 -85 -11 -25
-21 -65 -21 -90 0 -28 -8 -56 -20 -75 -25 -38 -25 -76 -2 -106 37 -45 78 2 94
108 6 37 16 84 24 104 7 20 18 94 25 164 11 119 15 135 62 239 82 184 107 266
107 354 0 42 7 108 15 147 16 74 19 123 9 149 -8 20 -14 20 -39 -2z"/>
<path d="M12327 4618 c-23 -78 -33 -192 -15 -186 7 3 16 24 19 49 4 24 12 60
18 79 13 41 15 110 2 110 -4 0 -15 -24 -24 -52z"/>
<path d="M19430 4631 c0 -6 4 -13 10 -16 6 -3 7 1 4 9 -7 18 -14 21 -14 7z"/>
<path d="M8810 4604 c0 -8 5 -12 10 -9 6 3 10 10 10 16 0 5 -4 9 -10 9 -5 0
-10 -7 -10 -16z"/>
<path d="M26038 4495 c-20 -13 -46 -40 -58 -60 -12 -19 -31 -40 -42 -46 -23
-12 -21 -47 4 -63 13 -8 24 -5 47 12 17 12 37 22 46 22 8 0 33 18 55 40 46 46
54 92 21 110 -27 14 -32 13 -73 -15z"/>
<path d="M27530 4401 c0 -15 66 -91 168 -191 157 -154 329 -342 361 -391 16
-26 34 -50 40 -54 7 -4 23 -24 37 -46 15 -24 32 -39 44 -39 29 0 24 23 -14 66
-103 116 -165 194 -191 239 -36 64 -181 208 -221 220 -20 6 -59 42 -108 98
-74 83 -116 119 -116 98z"/>
<path d="M8172 4324 c-24 -17 -30 -61 -11 -95 16 -31 81 -88 108 -96 14 -3 40
-17 59 -30 39 -26 46 -27 73 -13 28 15 23 51 -11 85 -17 16 -46 50 -63 75 -30
41 -96 89 -122 90 -6 0 -21 -7 -33 -16z"/>
<path d="M25010 4202 c0 -28 10 -52 22 -52 14 0 5 63 -9 68 -8 2 -13 -5 -13
-16z"/>
<path d="M6258 4127 c-40 -40 -93 -99 -118 -130 -26 -32 -56 -59 -70 -62 -50
-12 -70 -25 -138 -90 -77 -72 -143 -154 -173 -212 -19 -38 -170 -223 -241
-296 -37 -37 -48 -70 -28 -82 18 -11 45 4 64 37 11 18 34 49 52 69 17 20 47
61 66 90 19 30 79 99 132 154 54 55 132 139 173 187 42 47 84 89 94 91 10 3
22 12 25 20 3 9 54 64 113 124 100 100 156 173 132 173 -6 0 -43 -33 -83 -73z"/>
<path d="M22882 4019 c2 -6 8 -10 13 -10 5 0 11 4 13 10 2 6 -4 11 -13 11 -9
0 -15 -5 -13 -11z"/>
<path d="M9559 3924 c-12 -33 -3 -65 17 -57 9 3 14 19 14 44 0 45 -16 51 -31
13z"/>
<path d="M12315 3700 c-7 -12 2 -30 16 -30 5 0 9 9 9 20 0 21 -15 27 -25 10z"/>
<path d="M20808 3594 c-5 -4 -8 -21 -8 -38 0 -21 3 -27 11 -19 6 6 9 23 7 38
-2 15 -6 23 -10 19z"/>
<path d="M15010 3111 c0 -40 14 -62 23 -38 6 17 -3 66 -14 73 -5 3 -9 -13 -9
-35z"/>
<path d="M21402 3020 c0 -19 2 -27 5 -17 2 9 2 25 0 35 -3 9 -5 1 -5 -18z"/>
<path d="M29651 2911 c-7 -5 -11 -17 -9 -27 4 -17 5 -17 17 4 14 27 12 35 -8
23z"/>
<path d="M23375 2761 c-3 -5 -1 -12 5 -16 5 -3 10 1 10 9 0 18 -6 21 -15 7z"/>
<path d="M23506 2445 c4 -8 8 -15 10 -15 2 0 4 7 4 15 0 8 -4 15 -10 15 -5 0
-7 -7 -4 -15z"/>
<path d="M14240 2408 c0 -20 5 -40 10 -43 13 -8 13 45 0 65 -7 11 -10 6 -10
-22z"/>
<path d="M11350 2390 c0 -5 5 -10 11 -10 5 0 7 5 4 10 -3 6 -8 10 -11 10 -2 0
-4 -4 -4 -10z"/>
<path d="M27897 2323 c-4 -3 -7 -11 -7 -17 0 -6 5 -5 12 2 6 6 9 14 7 17 -3 3
-9 2 -12 -2z"/>
<path d="M3580 2261 c0 -5 9 -19 20 -32 19 -23 19 -23 20 -3 0 20 -17 44 -32
44 -4 0 -8 -4 -8 -9z"/>
<path d="M21106 2181 c-19 -21 -35 -132 -36 -245 0 -44 -4 -105 -10 -135 -27
-159 -28 -176 -14 -191 24 -24 31 -1 43 139 7 74 21 170 31 215 20 83 27 221
11 230 -4 3 -16 -3 -25 -13z"/>
<path d="M11690 2060 c0 -19 3 -21 12 -12 9 9 9 15 0 24 -9 9 -12 7 -12 -12z"/>
<path d="M21690 1830 c0 -27 5 -50 10 -50 6 0 10 23 10 50 0 28 -4 50 -10 50
-5 0 -10 -22 -10 -50z"/>
<path d="M21864 1779 c-9 -15 12 -33 30 -26 9 4 16 13 16 22 0 17 -35 21 -46
4z"/>
<path d="M11527 1674 c-4 -4 -7 -14 -7 -23 0 -11 3 -12 11 -4 6 6 10 16 7 23
-2 6 -7 8 -11 4z"/>
<path d="M5860 1496 c0 -8 5 -18 10 -21 6 -3 10 1 10 9 0 8 -4 18 -10 21 -5 3
-10 -1 -10 -9z"/>
<path d="M29168 1363 c6 -2 18 -2 25 0 6 3 1 5 -13 5 -14 0 -19 -2 -12 -5z"/>
<path d="M14599 1318 c-17 -33 -5 -187 24 -304 23 -89 47 -297 47 -397 0 -42
20 -58 46 -36 12 10 14 23 8 63 -4 28 -7 62 -7 76 1 14 -6 54 -15 90 -10 41
-16 108 -17 180 -1 244 -44 407 -86 328z"/>
<path d="M13860 871 c0 -38 5 -73 10 -76 6 -4 10 20 10 64 0 38 -4 73 -10 76
-6 4 -10 -20 -10 -64z"/>
<path d="M13602 793 c2 -22 8 -28 28 -28 16 0 26 6 28 19 4 21 -13 36 -41 36
-14 0 -18 -6 -15 -27z"/>
<path d="M4203 263 c9 -2 23 -2 30 0 6 3 -1 5 -18 5 -16 0 -22 -2 -12 -5z"/>
</g>
</svg>
